{
  "accessors": [
    {
      "bufferView": 2,
      "componentType": 5126,
      "count": 165,
      "max": [
        14.554664611816406,
        21.856685638427734,
        44.63283920288086
      ],
      "min": [
        -38.70307922363281,
        -33.79723358154297,
        0.0
      ],
      "type": "VEC3"
    },
    {
      "bufferView": 2,
      "byteOffset": 1980,
      "componentType": 5126,
      "count": 165,
      "max": [
        1.0,
        1.0,
        0.9999871253967285
      ],
      "min": [
        -1.0,
        -1.0,
        -0.9999871253967285
      ],
      "type": "VEC3"
    },
    {
      "bufferView": 1,
      "componentType": 5126,
      "count": 165,
      "max": [
        0.9910561442375183,
        0.9492947459220886
      ],
      "min": [
        0.018993964418768883,
        0.11109653115272522
      ],
      "type": "VEC2"
    },
    {
      "bufferView": 0,
      "componentType": 5125,
      "count": 387,
      "type": "SCALAR"
    },
    {
      "bufferView": 2,
      "byteOffset": 3960,
      "componentType": 5126,
      "count": 191,
      "max": [
        28.572708129882813,
        19.70165252685547,
        45.45036697387695
      ],
      "min": [
        -26.678878784179688,
        -21.727943420410156,
        0.0
      ],
      "type": "VEC3"
    },
    {
      "bufferView": 2,
      "byteOffset": 6252,
      "componentType": 5126,
      "count": 191,
      "max": [
        1.0,
        1.0,
        1.0
      ],
      "min": [
        -1.0,
        -1.0,
        -1.0
      ],
      "type": "VEC3"
    },
    {
      "bufferView": 1,
      "byteOffset": 1320,
      "componentType": 5126,
      "count": 191,
      "max": [
        0.9825423955917358,
        0.927278995513916
      ],
      "min": [
        0.007764667272567749,
        0.03979431092739105
      ],
      "type": "VEC2"
    },
    {
      "bufferView": 0,
      "byteOffset": 1548,
      "componentType": 5125,
      "count": 372,
      "type": "SCALAR"
    },
    {
      "bufferView": 2,
      "byteOffset": 8544,
      "componentType": 5126,
      "count": 249,
      "max": [
        27.384981155395508,
        22.5,
        45.45207214355469
      ],
      "min": [
        -27.384981155395508,
        -23.543367385864258,
        0.0
      ],
      "type": "VEC3"
    },
    {
      "bufferView": 2,
      "byteOffset": 11532,
      "componentType": 5126,
      "count": 249,
      "max": [
        1.0,
        1.0,
        1.0
      ],
      "min": [
        -1.0,
        -1.0,
        -1.0
      ],
      "type": "VEC3"
    },
    {
      "bufferView": 1,
      "byteOffset": 2848,
      "componentType": 5126,
      "count": 249,
      "max": [
        0.9938758015632629,
        0.9838283658027649
      ],
      "min": [
        0.025070762261748314,
        0.017839206382632256
      ],
      "type": "VEC2"
    },
    {
      "bufferView": 0,
      "byteOffset": 3036,
      "componentType": 5125,
      "count": 546,
      "type": "SCALAR"
    },
    {
      "bufferView": 2,
      "byteOffset": 14520,
      "componentType": 5126,
      "count": 340,
      "max": [
        28.770462036132813,
        22.31254768371582,
        42.92646789550781
      ],
      "min": [
        -28.770462036132813,
        -28.138145446777344,
        0.22387313842773438
      ],
      "type": "VEC3"
    },
    {
      "bufferView": 2,
      "byteOffset": 18600,
      "componentType": 5126,
      "count": 340,
      "max": [
        1.0,
        1.0,
        1.0
      ],
      "min": [
        -1.0,
        -1.0,
        -1.0
      ],
      "type": "VEC3"
    },
    {
      "bufferView": 1,
      "byteOffset": 4840,
      "componentType": 5126,
      "count": 340,
      "max": [
        0.9852905869483948,
        0.9815956950187683
      ],
      "min": [
        0.026143928989768028,
        0.008340094238519669
      ],
      "type": "VEC2"
    },
    {
      "bufferView": 0,
      "byteOffset": 5220,
      "componentType": 5125,
      "count": 990,
      "type": "SCALAR"
    },
    {
      "bufferView": 2,
      "byteOffset": 22680,
      "componentType": 5126,
      "count": 437,
      "max": [
        27.357362747192383,
        24.044931411743164,
        41.89502716064453
      ],
      "min": [
        -27.357362747192383,
        -24.044931411743164,
        -0.017963409423828125
      ],
      "type": "VEC3"
    },
    {
      "bufferView": 2,
      "byteOffset": 27924,
      "componentType": 5126,
      "count": 437,
      "max": [
        1.0,
        1.0,
        1.0
      ],
      "min": [
        -1.0,
        -1.0,
        -1.0
      ],
      "type": "VEC3"
    },
    {
      "bufferView": 1,
      "byteOffset": 7560,
      "componentType": 5126,
      "count": 437,
      "max": [
        0.9865595698356628,
        0.964792788028717
      ],
      "min": [
        0.016645848751068115,
        0.023257119581103325
      ],
      "type": "VEC2"
    },
    {
      "bufferView": 0,
      "byteOffset": 9180,
      "componentType": 5125,
      "count": 936,
      "type": "SCALAR"
    },
    {
      "bufferView": 2,
      "byteOffset": 33168,
      "componentType": 5126,
      "count": 316,
      "max": [
        25.214452743530273,
        21.20165252685547,
        46.09461212158203
      ],
      "min": [
        -28.300722122192383,
        -21.459205627441406,
        0.0
      ],
      "type": "VEC3"
    },
    {
      "bufferView": 2,
      "byteOffset": 36960,
      "componentType": 5126,
      "count": 316,
      "max": [
        1.0,
        1.0,
        1.0
      ],
      "min": [
        -1.0,
        -1.0,
        -1.0
      ],
      "type": "VEC3"
    },
    {
      "bufferView": 1,
      "byteOffset": 11056,
      "componentType": 5126,
      "count": 316,
      "max": [
        0.9474644064903259,
        0.9932966232299805
      ],
      "min": [
        0.010487268678843975,
        0.007964558899402618
      ],
      "type": "VEC2"
    },
    {
      "bufferView": 0,
      "byteOffset": 12924,
      "componentType": 5125,
      "count": 510,
      "type": "SCALAR"
    },
    {
      "bufferView": 2,
      "byteOffset": 40752,
      "componentType": 5126,
      "count": 554,
      "max": [
        32.9034538269043,
        24.53802490234375,
        39.205387115478516
      ],
      "min": [
        -32.9034538269043,
        -30.026268005371094,
        -0.03862476348876953
      ],
      "type": "VEC3"
    },
    {
      "bufferView": 2,
      "byteOffset": 47400,
      "componentType": 5126,
      "count": 554,
      "max": [
        1.0,
        1.0,
        1.0
      ],
      "min": [
        -1.0,
        -1.0,
        -1.0
      ],
      "type": "VEC3"
    },
    {
      "bufferView": 1,
      "byteOffset": 13584,
      "componentType": 5126,
      "count": 554,
      "max": [
        0.996093213558197,
        0.9700362086296082
      ],
      "min": [
        0.012204911559820175,
        0.011810801923274994
      ],
      "type": "VEC2"
    },
    {
      "bufferView": 0,
      "byteOffset": 14964,
      "componentType": 5125,
      "count": 1620,
      "type": "SCALAR"
    },
    {
      "bufferView": 2,
      "byteOffset": 54048,
      "componentType": 5126,
      "count": 214,
      "max": [
        28.582645416259766,
        21.146970748901367,
        42.16293716430664
      ],
      "min": [
        -24.719837188720703,
        -21.141223907470703,
        0.0
      ],
      "type": "VEC3"
    },
    {
      "bufferView": 2,
      "byteOffset": 56616,
      "componentType": 5126,
      "count": 214,
      "max": [
        1.0,
        1.0,
        1.0
      ],
      "min": [
        -1.0,
        -1.0,
        -1.0
      ],
      "type": "VEC3"
    },
    {
      "bufferView": 1,
      "byteOffset": 18016,
      "componentType": 5126,
      "count": 214,
      "max": [
        0.9891799688339233,
        0.9349164962768555
      ],
      "min": [
        0.04850345849990845,
        0.027809709310531616
      ],
      "type": "VEC2"
    },
    {
      "bufferView": 0,
      "byteOffset": 21444,
      "componentType": 5125,
      "count": 456,
      "type": "SCALAR"
    },
    {
      "bufferView": 2,
      "byteOffset": 59184,
      "componentType": 5126,
      "count": 165,
      "max": [
        28.127361297607422,
        21.954864501953125,
        44.822505950927734
      ],
      "min": [
        -29.967519760131836,
        -21.260711669921875,
        0.0
      ],
      "type": "VEC3"
    },
    {
      "bufferView": 2,
      "byteOffset": 61164,
      "componentType": 5126,
      "count": 165,
      "max": [
        1.0,
        1.0,
        1.0
      ],
      "min": [
        -1.0,
        -1.0,
        -1.0
      ],
      "type": "VEC3"
    },
    {
      "bufferView": 1,
      "byteOffset": 19728,
      "componentType": 5126,
      "count": 165,
      "max": [
        0.9904525279998779,
        0.9840393662452698
      ],
      "min": [
        0.007339825388044119,
        0.011193588376045227
      ],
      "type": "VEC2"
    },
    {
      "bufferView": 0,
      "byteOffset": 23268,
      "componentType": 5125,
      "count": 318,
      "type": "SCALAR"
    }
  ],
  "asset": {
    "extras": {
      "author": "Monhoo (https://sketchfab.com/Monhoo)",
      "license": "CC-BY-4.0 (http://creativecommons.org/licenses/by/4.0/)",
      "source": "https://sketchfab.com/3d-models/cartoon-building-collection-0d767497596b4fa4b7d2047aa50fdddb",
      "title": "Cartoon Building Collection"
    },
    "generator": "Sketchfab-13.74.0",
    "version": "2.0"
  },
  "bufferViews": [
    {
      "buffer": 0,
      "byteLength": 24540,
      "name": "floatBufferViews",
      "target": 34963
    },
    {
      "buffer": 0,
      "byteLength": 21048,
      "byteOffset": 24540,
      "byteStride": 8,
      "name": "floatBufferViews",
      "target": 34962
    },
    {
      "buffer": 0,
      "byteLength": 63144,
      "byteOffset": 45588,
      "byteStride": 12,
      "name": "floatBufferViews",
      "target": 34962
    }
  ],
  "buffers": [
    {
      "byteLength": 108732,
      "uri": "scene.bin"
    }
  ],
  "images": [
    {
      "uri": "textures/material_baseColor.png"
    },
    {
      "uri": "textures/material_1_baseColor.png"
    },
    {
      "uri": "textures/material_2_baseColor.png"
    },
    {
      "uri": "textures/material_3_baseColor.png"
    },
    {
      "uri": "textures/material_4_baseColor.png"
    },
    {
      "uri": "textures/material_5_baseColor.png"
    },
    {
      "uri": "textures/material_6_baseColor.png"
    },
    {
      "uri": "textures/material_7_baseColor.png"
    },
    {
      "uri": "textures/material_8_baseColor.png"
    }
  ],
  "materials": [
    {
      "doubleSided": true,
      "name": "material",
      "pbrMetallicRoughness": {
        "baseColorTexture": {
          "index": 0
        },
        "metallicFactor": 0.0,
        "roughnessFactor": 0.6
      }
    },
    {
      "doubleSided": true,
      "name": "material_1",
      "pbrMetallicRoughness": {
        "baseColorTexture": {
          "index": 1
        },
        "metallicFactor": 0.0,
        "roughnessFactor": 0.6
      }
    },
    {
      "doubleSided": true,
      "name": "material_2",
      "pbrMetallicRoughness": {
        "baseColorTexture": {
          "index": 2
        },
        "metallicFactor": 0.0,
        "roughnessFactor": 0.6
      }
    },
    {
      "doubleSided": true,
      "name": "material_3",
      "pbrMetallicRoughness": {
        "baseColorTexture": {
          "index": 3
        },
        "metallicFactor": 0.0,
        "roughnessFactor": 0.6
      }
    },
    {
      "doubleSided": true,
      "name": "material_4",
      "pbrMetallicRoughness": {
        "baseColorTexture": {
          "index": 4
        },
        "metallicFactor": 0.0,
        "roughnessFactor": 0.6
      }
    },
    {
      "doubleSided": true,
      "name": "material_5",
      "pbrMetallicRoughness": {
        "baseColorTexture": {
          "index": 5
        },
        "metallicFactor": 0.0,
        "roughnessFactor": 0.6
      }
    },
    {
      "doubleSided": true,
      "name": "material_6",
      "pbrMetallicRoughness": {
        "baseColorTexture": {
          "index": 6
        },
        "metallicFactor": 0.0,
        "roughnessFactor": 0.6
      }
    },
    {
      "doubleSided": true,
      "name": "material_7",
      "pbrMetallicRoughness": {
        "baseColorTexture": {
          "index": 7
        },
        "metallicFactor": 0.0,
        "roughnessFactor": 0.6
      }
    },
    {
      "doubleSided": true,
      "name": "material_8",
      "pbrMetallicRoughness": {
        "baseColorTexture": {
          "index": 8
        },
        "metallicFactor": 0.0,
        "roughnessFactor": 0.6
      }
    }
  ],
  "meshes": [
    {
      "name": "BuildingE_E_0",
      "primitives": [
        {
          "attributes": {
            "NORMAL": 1,
            "POSITION": 0,
            "TEXCOORD_0": 2
          },
          "indices": 3,
          "material": 0,
          "mode": 4
        }
      ]
    },
    {
      "name": "BuildingD_D_0",
      "primitives": [
        {
          "attributes": {
            "NORMAL": 5,
            "POSITION": 4,
            "TEXCOORD_0": 6
          },
          "indices": 7,
          "material": 1,
          "mode": 4
        }
      ]
    },
    {
      "name": "BuildingA_A_0",
      "primitives": [
        {
          "attributes": {
            "NORMAL": 9,
            "POSITION": 8,
            "TEXCOORD_0": 10
          },
          "indices": 11,
          "material": 2,
          "mode": 4
        }
      ]
    },
    {
      "name": "BuildingB_B_0",
      "primitives": [
        {
          "attributes": {
            "NORMAL": 13,
            "POSITION": 12,
            "TEXCOORD_0": 14
          },
          "indices": 15,
          "material": 3,
          "mode": 4
        }
      ]
    },
    {
      "name": "BuildingC_C_0",
      "primitives": [
        {
          "attributes": {
            "NORMAL": 17,
            "POSITION": 16,
            "TEXCOORD_0": 18
          },
          "indices": 19,
          "material": 4,
          "mode": 4
        }
      ]
    },
    {
      "name": "BuildingF_F_0",
      "primitives": [
        {
          "attributes": {
            "NORMAL": 21,
            "POSITION": 20,
            "TEXCOORD_0": 22
          },
          "indices": 23,
          "material": 5,
          "mode": 4
        }
      ]
    },
    {
      "name": "BuildingH_H_0",
      "primitives": [
        {
          "attributes": {
            "NORMAL": 25,
            "POSITION": 24,
            "TEXCOORD_0": 26
          },
          "indices": 27,
          "material": 6,
          "mode": 4
        }
      ]
    },
    {
      "name": "BuildingG_G_0",
      "primitives": [
        {
          "attributes": {
            "NORMAL": 29,
            "POSITION": 28,
            "TEXCOORD_0": 30
          },
          "indices": 31,
          "material": 7,
          "mode": 4
        }
      ]
    },
    {
      "name": "BuildingI_I_0",
      "primitives": [
        {
          "attributes": {
            "NORMAL": 33,
            "POSITION": 32,
            "TEXCOORD_0": 34
          },
          "indices": 35,
          "material": 8,
          "mode": 4
        }
      ]
    }
  ],
  "nodes": [
    {
      "children": [
        1
      ],
      "matrix": [
        1.0,
        0.0,
        0.0,
        0.0,
        0.0,
        2.220446049250313e-16,
        -1.0,
        0.0,
        0.0,
        1.0,
        2.220446049250313e-16,
        0.0,
        0.0,
        0.0,
        0.0,
        1.0
      ],
      "name": "Sketchfab_model"
    },
    {
      "children": [
        2
      ],
      "matrix": [
        0.02539999969303608,
        0.0,
        0.0,
        0.0,
        0.0,
        0.0,
        0.02539999969303608,
        0.0,
        0.0,
        -0.02539999969303608,
        0.0,
        0.0,
        0.0,
        0.0,
        0.0,
        1.0
      ],
      "name": "a98dc22203b8452b850b7fd64780a7e2.fbx"
    },
    {
      "children": [
        3,
        5,
        7,
        9,
        11,
        13,
        15,
        17,
        19
      ],
      "name": "RootNode"
    },
    {
      "children": [
        4
      ],
      "matrix": [
        1.0,
        0.0,
        0.0,
        0.0,
        0.0,
        2.220446049250313e-16,
        -1.0,
        0.0,
        0.0,
        1.0,
        2.220446049250313e-16,
        0.0,
        0.0,
        0.0,
        0.0,
        1.0
      ],
      "name": "BuildingE"
    },
    {
      "mesh": 0,
      "name": "BuildingE_E_0"
    },
    {
      "children": [
        6
      ],
      "matrix": [
        1.0,
        0.0,
        0.0,
        0.0,
        0.0,
        2.220446049250313e-16,
        -1.0,
        0.0,
        0.0,
        1.0,
        2.220446049250313e-16,
        0.0,
        -150.0,
        0.0,
        0.0,
        1.0
      ],
      "name": "BuildingD"
    },
    {
      "mesh": 1,
      "name": "BuildingD_D_0"
    },
    {
      "children": [
        8
      ],
      "matrix": [
        1.0,
        0.0,
        0.0,
        0.0,
        0.0,
        2.220446049250313e-16,
        -1.0,
        0.0,
        0.0,
        1.0,
        2.220446049250313e-16,
        0.0,
        -150.00001525878906,
        50.0,
        0.0,
        1.0
      ],
      "name": "BuildingA"
    },
    {
      "mesh": 2,
      "name": "BuildingA_A_0"
    },
    {
      "children": [
        10
      ],
      "matrix": [
        1.0,
        0.0,
        0.0,
        0.0,
        0.0,
        2.220446049250313e-16,
        -1.0,
        0.0,
        0.0,
        1.0,
        2.220446049250313e-16,
        0.0,
        0.0,
        50.0,
        0.0,
        1.0
      ],
      "name": "BuildingB"
    },
    {
      "mesh": 3,
      "name": "BuildingB_B_0"
    },
    {
      "children": [
        12
      ],
      "matrix": [
        1.0,
        0.0,
        0.0,
        0.0,
        0.0,
        2.220446049250313e-16,
        -1.0,
        0.0,
        0.0,
        1.0,
        2.220446049250313e-16,
        0.0,
        150.0,
        50.0,
        0.0,
        1.0
      ],
      "name": "BuildingC"
    },
    {
      "mesh": 4,
      "name": "BuildingC_C_0"
    },
    {
      "children": [
        14
      ],
      "matrix": [
        1.0,
        0.0,
        0.0,
        0.0,
        0.0,
        2.220446049250313e-16,
        -1.0,
        0.0,
        0.0,
        1.0,
        2.220446049250313e-16,
        0.0,
        150.0,
        0.0,
        0.0,
        1.0
      ],
      "name": "BuildingF"
    },
    {
      "mesh": 5,
      "name": "BuildingF_F_0"
    },
    {
      "children": [
        16
      ],
      "matrix": [
        1.0,
        0.0,
        0.0,
        0.0,
        0.0,
        2.220446049250313e-16,
        -1.0,
        0.0,
        0.0,
        1.0,
        2.220446049250313e-16,
        0.0,
        0.0,
        -50.0,
        0.0,
        1.0
      ],
      "name": "BuildingH"
    },
    {
      "mesh": 6,
      "name": "BuildingH_H_0"
    },
    {
      "children": [
        18
      ],
      "matrix": [
        1.0,
        0.0,
        0.0,
        0.0,
        0.0,
        2.220446049250313e-16,
        -1.0,
        0.0,
        0.0,
        1.0,
        2.220446049250313e-16,
        0.0,
        -150.0,
        -50.0,
        0.0,
        1.0
      ],
      "name": "BuildingG"
    },
    {
      "mesh": 7,
      "name": "BuildingG_G_0"
    },
    {
      "children": [
        20
      ],
      "matrix": [
        1.0,
        0.0,
        0.0,
        0.0,
        0.0,
        2.220446049250313e-16,
        -1.0,
        0.0,
        0.0,
        1.0,
        2.220446049250313e-16,
        0.0,
        150.0,
        -50.0,
        0.0,
        1.0
      ],
      "name": "BuildingI"
    },
    {
      "mesh": 8,
      "name": "BuildingI_I_0"
    }
  ],
  "samplers": [
    {
      "magFilter": 9729,
      "minFilter": 9987,
      "wrapS": 10497,
      "wrapT": 10497
    }
  ],
  "scene": 0,
  "scenes": [
    {
      "name": "Sketchfab_Scene",
      "nodes": [
        0
      ]
    }
  ],
  "textures": [
    {
      "sampler": 0,
      "source": 0
    },
    {
      "sampler": 0,
      "source": 1
    },
    {
      "sampler": 0,
      "source": 2
    },
    {
      "sampler": 0,
      "source": 3
    },
    {
      "sampler": 0,
      "source": 4
    },
    {
      "sampler": 0,
      "source": 5
    },
    {
      "sampler": 0,
      "source": 6
    },
    {
      "sampler": 0,
      "source": 7
    },
    {
      "sampler": 0,
      "source": 8
    }
  ]
}
