{
  "accessors": [
    {
      "bufferView": 2,
      "componentType": 5126,
      "count": 24,
      "max": [
        401.92633056640625,
        -4.776122570037842,
        111.96861267089844
      ],
      "min": [
        155.72869873046875,
        -9.776123046875,
        -92.54743194580078
      ],
      "type": "VEC3"
    },
    {
      "bufferView": 2,
      "byteOffset": 288,
      "componentType": 5126,
      "count": 24,
      "max": [
        1.0,
        1.0,
        1.0
      ],
      "min": [
        -1.0,
        -1.0,
        -1.0
      ],
      "type": "VEC3"
    },
    {
      "bufferView": 1,
      "componentType": 5126,
      "count": 24,
      "max": [
        0.0,
        0.0
      ],
      "min": [
        0.0,
        0.0
      ],
      "type": "VEC2"
    },
    {
      "bufferView": 0,
      "componentType": 5125,
      "count": 36,
      "type": "SCALAR"
    },
    {
      "bufferView": 2,
      "byteOffset": 576,
      "componentType": 5126,
      "count": 76,
      "max": [
        668.1597900390625,
        448.15985107421875,
        7.300000288523734e-05
      ],
      "min": [
        -300.6598815917969,
        -97.90750122070313,
        -1118.6309814453125
      ],
      "type": "VEC3"
    },
    {
      "bufferView": 2,
      "byteOffset": 1488,
      "componentType": 5126,
      "count": 76,
      "max": [
        1.0,
        1.3932565252616769e-06,
        1.0
      ],
      "min": [
        -4.0923000597103965e-06,
        -1.63080684956185e-07,
        -1.0
      ],
      "type": "VEC3"
    },
    {
      "bufferView": 0,
      "byteOffset": 144,
      "componentType": 5125,
      "count": 156,
      "type": "SCALAR"
    },
    {
      "bufferView": 2,
      "byteOffset": 2400,
      "componentType": 5126,
      "count": 140,
      "max": [
        147.89501953125,
        460.4651794433594,
        -11.21210765838623
      ],
      "min": [
        -777.10400390625,
        -124.41798400878906,
        -1288.8782958984375
      ],
      "type": "VEC3"
    },
    {
      "bufferView": 2,
      "byteOffset": 4080,
      "componentType": 5126,
      "count": 140,
      "max": [
        1.0,
        1.8300777355761966e-06,
        1.0
      ],
      "min": [
        -1.0,
        -1.6767502586390037e-07,
        -1.0
      ],
      "type": "VEC3"
    },
    {
      "bufferView": 0,
      "byteOffset": 768,
      "componentType": 5125,
      "count": 312,
      "type": "SCALAR"
    },
    {
      "bufferView": 2,
      "byteOffset": 5760,
      "componentType": 5126,
      "count": 126,
      "max": [
        833.8048706054688,
        22.001129150390625,
        263.8441162109375
      ],
      "min": [
        -835.26953125,
        -2.300000051036477e-05,
        -265.307373046875
      ],
      "type": "VEC3"
    },
    {
      "bufferView": 2,
      "byteOffset": 7272,
      "componentType": 5126,
      "count": 126,
      "max": [
        1.0,
        1.0,
        1.0
      ],
      "min": [
        -1.0,
        -1.0,
        -1.0
      ],
      "type": "VEC3"
    },
    {
      "bufferView": 1,
      "byteOffset": 192,
      "componentType": 5126,
      "count": 126,
      "max": [
        0.0,
        0.0
      ],
      "min": [
        0.0,
        0.0
      ],
      "type": "VEC2"
    },
    {
      "bufferView": 0,
      "byteOffset": 2016,
      "componentType": 5125,
      "count": 186,
      "type": "SCALAR"
    },
    {
      "bufferView": 2,
      "byteOffset": 8784,
      "componentType": 5126,
      "count": 34,
      "max": [
        1096.307373046875,
        615.0658569335938,
        212.78436279296875
      ],
      "min": [
        -564.2316284179688,
        605.0614013671875,
        -307.83233642578125
      ],
      "type": "VEC3"
    },
    {
      "bufferView": 2,
      "byteOffset": 9192,
      "componentType": 5126,
      "count": 34,
      "max": [
        0.09056956321001053,
        1.0,
        0.09057649224996567
      ],
      "min": [
        -0.09053507447242737,
        0.9958896040916443,
        -4.350179665379983e-07
      ],
      "type": "VEC3"
    },
    {
      "bufferView": 1,
      "byteOffset": 1200,
      "componentType": 5126,
      "count": 34,
      "max": [
        0.0,
        0.0
      ],
      "min": [
        0.0,
        0.0
      ],
      "type": "VEC2"
    },
    {
      "bufferView": 0,
      "byteOffset": 2760,
      "componentType": 5125,
      "count": 36,
      "type": "SCALAR"
    },
    {
      "bufferView": 2,
      "byteOffset": 9600,
      "componentType": 5126,
      "count": 328,
      "max": [
        36.77501678466797,
        269.1311950683594,
        547.2326049804688
      ],
      "min": [
        -1519.527099609375,
        -309.4914245605469,
        -775.8291015625
      ],
      "type": "VEC3"
    },
    {
      "bufferView": 2,
      "byteOffset": 13536,
      "componentType": 5126,
      "count": 328,
      "max": [
        1.0,
        1.0,
        1.0
      ],
      "min": [
        -1.0,
        -1.0,
        -1.0
      ],
      "type": "VEC3"
    },
    {
      "bufferView": 1,
      "byteOffset": 1472,
      "componentType": 5126,
      "count": 328,
      "max": [
        0.0,
        0.0
      ],
      "min": [
        0.0,
        0.0
      ],
      "type": "VEC2"
    },
    {
      "bufferView": 0,
      "byteOffset": 2904,
      "componentType": 5125,
      "count": 504,
      "type": "SCALAR"
    },
    {
      "bufferView": 2,
      "byteOffset": 17472,
      "componentType": 5126,
      "count": 132,
      "max": [
        33.890018463134766,
        -39.43162536621094,
        545.926513671875
      ],
      "min": [
        -1519.527099609375,
        -464.9914245605469,
        -775.8289794921875
      ],
      "type": "VEC3"
    },
    {
      "bufferView": 2,
      "byteOffset": 19056,
      "componentType": 5126,
      "count": 132,
      "max": [
        1.0,
        1.0,
        1.0
      ],
      "min": [
        -1.0,
        -1.0,
        -1.0
      ],
      "type": "VEC3"
    },
    {
      "bufferView": 1,
      "byteOffset": 4096,
      "componentType": 5126,
      "count": 132,
      "max": [
        4.8150482177734375,
        4.171544075012207
      ],
      "min": [
        -3.8150479793548584,
        -3.171544075012207
      ],
      "type": "VEC2"
    },
    {
      "bufferView": 0,
      "byteOffset": 4920,
      "componentType": 5125,
      "count": 216,
      "type": "SCALAR"
    },
    {
      "bufferView": 2,
      "byteOffset": 20640,
      "componentType": 5126,
      "count": 336,
      "max": [
        4.480894565582275,
        538.3519287109375,
        4.461781024932861
      ],
      "min": [
        -4.404598236083984,
        -12.486620903015137,
        -4.461792469024658
      ],
      "type": "VEC3"
    },
    {
      "bufferView": 2,
      "byteOffset": 24672,
      "componentType": 5126,
      "count": 336,
      "max": [
        1.0,
        1.0,
        0.9957345724105835
      ],
      "min": [
        -0.9829732179641724,
        -1.0,
        -0.995734453201294
      ],
      "type": "VEC3"
    },
    {
      "bufferView": 1,
      "byteOffset": 5152,
      "componentType": 5126,
      "count": 336,
      "max": [
        1.044118046760559,
        1.0
      ],
      "min": [
        0.0021329999435693026,
        0.0
      ],
      "type": "VEC2"
    },
    {
      "bufferView": 0,
      "byteOffset": 5784,
      "componentType": 5125,
      "count": 906,
      "type": "SCALAR"
    },
    {
      "bufferView": 2,
      "byteOffset": 28704,
      "componentType": 5126,
      "count": 180,
      "max": [
        3.5100769996643066,
        485.54803466796875,
        3.4951024055480957
      ],
      "min": [
        -3.4503114223480225,
        10.31238842010498,
        -3.49511456489563
      ],
      "type": "VEC3"
    },
    {
      "bufferView": 2,
      "byteOffset": 30864,
      "componentType": 5126,
      "count": 180,
      "max": [
        1.0,
        2.8220396686151616e-08,
        0.9957342147827148
      ],
      "min": [
        -0.9829732179641724,
        -3.0427557362600055e-08,
        -0.9957342743873596
      ],
      "type": "VEC3"
    },
    {
      "bufferView": 1,
      "byteOffset": 7840,
      "componentType": 5126,
      "count": 180,
      "max": [
        1.044118046760559,
        0.949999988079071
      ],
      "min": [
        0.0441179983317852,
        0.5
      ],
      "type": "VEC2"
    },
    {
      "bufferView": 0,
      "byteOffset": 9408,
      "componentType": 5125,
      "count": 510,
      "type": "SCALAR"
    },
    {
      "bufferView": 2,
      "byteOffset": 33024,
      "componentType": 5126,
      "count": 336,
      "max": [
        4.480894565582275,
        538.3519287109375,
        4.461781024932861
      ],
      "min": [
        -4.404598236083984,
        -12.486620903015137,
        -4.461792469024658
      ],
      "type": "VEC3"
    },
    {
      "bufferView": 2,
      "byteOffset": 37056,
      "componentType": 5126,
      "count": 336,
      "max": [
        1.0,
        1.0,
        0.9957345724105835
      ],
      "min": [
        -0.9829732179641724,
        -1.0,
        -0.995734453201294
      ],
      "type": "VEC3"
    },
    {
      "bufferView": 1,
      "byteOffset": 9280,
      "componentType": 5126,
      "count": 336,
      "max": [
        1.044118046760559,
        1.0
      ],
      "min": [
        0.0021329999435693026,
        0.0
      ],
      "type": "VEC2"
    },
    {
      "bufferView": 0,
      "byteOffset": 11448,
      "componentType": 5125,
      "count": 906,
      "type": "SCALAR"
    },
    {
      "bufferView": 2,
      "byteOffset": 41088,
      "componentType": 5126,
      "count": 180,
      "max": [
        3.5100769996643066,
        485.54803466796875,
        3.4951024055480957
      ],
      "min": [
        -3.4503114223480225,
        10.31238842010498,
        -3.49511456489563
      ],
      "type": "VEC3"
    },
    {
      "bufferView": 2,
      "byteOffset": 43248,
      "componentType": 5126,
      "count": 180,
      "max": [
        1.0,
        2.8220396686151616e-08,
        0.9957342147827148
      ],
      "min": [
        -0.9829732179641724,
        -3.0427557362600055e-08,
        -0.9957342743873596
      ],
      "type": "VEC3"
    },
    {
      "bufferView": 1,
      "byteOffset": 11968,
      "componentType": 5126,
      "count": 180,
      "max": [
        1.044118046760559,
        0.949999988079071
      ],
      "min": [
        0.0441179983317852,
        0.5
      ],
      "type": "VEC2"
    },
    {
      "bufferView": 0,
      "byteOffset": 15072,
      "componentType": 5125,
      "count": 510,
      "type": "SCALAR"
    },
    {
      "bufferView": 2,
      "byteOffset": 45408,
      "componentType": 5126,
      "count": 552,
      "max": [
        4.480894565582275,
        538.3519287109375,
        4.461781024932861
      ],
      "min": [
        -4.404598236083984,
        -12.486620903015137,
        -4.461792469024658
      ],
      "type": "VEC3"
    },
    {
      "bufferView": 2,
      "byteOffset": 52032,
      "componentType": 5126,
      "count": 552,
      "max": [
        0.9829732775688171,
        1.0,
        0.9957345128059387
      ],
      "min": [
        -1.0,
        -1.0,
        -0.995734453201294
      ],
      "type": "VEC3"
    },
    {
      "bufferView": 1,
      "byteOffset": 13408,
      "componentType": 5126,
      "count": 552,
      "max": [
        1.044118046760559,
        1.0
      ],
      "min": [
        0.0021329999435693026,
        0.0
      ],
      "type": "VEC2"
    },
    {
      "bufferView": 0,
      "byteOffset": 17112,
      "componentType": 5125,
      "count": 906,
      "type": "SCALAR"
    },
    {
      "bufferView": 2,
      "byteOffset": 58656,
      "componentType": 5126,
      "count": 340,
      "max": [
        3.5100769996643066,
        485.54803466796875,
        3.4951024055480957
      ],
      "min": [
        -3.4503114223480225,
        10.31238842010498,
        -3.49511456489563
      ],
      "type": "VEC3"
    },
    {
      "bufferView": 2,
      "byteOffset": 62736,
      "componentType": 5126,
      "count": 340,
      "max": [
        0.9829732775688171,
        2.990948644310265e-08,
        0.9957342743873596
      ],
      "min": [
        -1.0,
        -3.418224636675404e-08,
        -0.9957342743873596
      ],
      "type": "VEC3"
    },
    {
      "bufferView": 1,
      "byteOffset": 17824,
      "componentType": 5126,
      "count": 340,
      "max": [
        1.044118046760559,
        0.949999988079071
      ],
      "min": [
        0.0441179983317852,
        0.5
      ],
      "type": "VEC2"
    },
    {
      "bufferView": 0,
      "byteOffset": 20736,
      "componentType": 5125,
      "count": 510,
      "type": "SCALAR"
    },
    {
      "bufferView": 2,
      "byteOffset": 66816,
      "componentType": 5126,
      "count": 140,
      "max": [
        19.534862518310547,
        105.51141357421875,
        19.409257888793945
      ],
      "min": [
        -70.67192840576172,
        0.0,
        -16.105859756469727
      ],
      "type": "VEC3"
    },
    {
      "bufferView": 2,
      "byteOffset": 68496,
      "componentType": 5126,
      "count": 140,
      "max": [
        1.0,
        1.0,
        1.0
      ],
      "min": [
        -1.0,
        -1.0,
        -1.0
      ],
      "type": "VEC3"
    },
    {
      "bufferView": 1,
      "byteOffset": 20544,
      "componentType": 5126,
      "count": 140,
      "max": [
        1.0,
        1.0
      ],
      "min": [
        0.0,
        0.0
      ],
      "type": "VEC2"
    },
    {
      "bufferView": 0,
      "byteOffset": 22776,
      "componentType": 5125,
      "count": 168,
      "type": "SCALAR"
    },
    {
      "bufferView": 2,
      "byteOffset": 70176,
      "componentType": 5126,
      "count": 861,
      "max": [
        12.96409797668457,
        11.5286226272583,
        17.546306610107422
      ],
      "min": [
        -12.96409797668457,
        -11.528613090515137,
        -17.546262741088867
      ],
      "type": "VEC3"
    },
    {
      "bufferView": 2,
      "byteOffset": 80508,
      "componentType": 5126,
      "count": 861,
      "max": [
        1.0,
        1.0,
        1.0
      ],
      "min": [
        -1.0,
        -1.0,
        -1.0
      ],
      "type": "VEC3"
    },
    {
      "bufferView": 1,
      "byteOffset": 21664,
      "componentType": 5126,
      "count": 861,
      "max": [
        1.0,
        1.0
      ],
      "min": [
        0.0,
        0.0
      ],
      "type": "VEC2"
    },
    {
      "bufferView": 0,
      "byteOffset": 23448,
      "componentType": 5125,
      "count": 1260,
      "type": "SCALAR"
    },
    {
      "bufferView": 2,
      "byteOffset": 90840,
      "componentType": 5126,
      "count": 1555,
      "max": [
        35.80986404418945,
        36.244483947753906,
        26.738039016723633
      ],
      "min": [
        -49.092899322509766,
        -5.2412919998168945,
        -12.207470893859863
      ],
      "type": "VEC3"
    },
    {
      "bufferView": 2,
      "byteOffset": 109500,
      "componentType": 5126,
      "count": 1555,
      "max": [
        1.0,
        1.0,
        1.0
      ],
      "min": [
        -1.0,
        -1.0,
        -1.0
      ],
      "type": "VEC3"
    },
    {
      "bufferView": 1,
      "byteOffset": 28552,
      "componentType": 5126,
      "count": 1555,
      "max": [
        4.587650775909424,
        3.888735055923462
      ],
      "min": [
        -3.6843550205230713,
        -1.7705570459365845
      ],
      "type": "VEC2"
    },
    {
      "bufferView": 0,
      "byteOffset": 28488,
      "componentType": 5125,
      "count": 2244,
      "type": "SCALAR"
    },
    {
      "bufferView": 2,
      "byteOffset": 128160,
      "componentType": 5126,
      "count": 749,
      "max": [
        71.3492202758789,
        107.89812469482422,
        4.1610283851623535
      ],
      "min": [
        -257.8520202636719,
        -74.92483520507813,
        -6.183504104614258
      ],
      "type": "VEC3"
    },
    {
      "bufferView": 2,
      "byteOffset": 137148,
      "componentType": 5126,
      "count": 749,
      "max": [
        1.0,
        1.0,
        1.0
      ],
      "min": [
        -1.0,
        -1.0,
        -1.0
      ],
      "type": "VEC3"
    },
    {
      "bufferView": 1,
      "byteOffset": 40992,
      "componentType": 5126,
      "count": 749,
      "max": [
        68.39678192138672,
        70.02075958251953
      ],
      "min": [
        -63.24532699584961,
        -70.0262222290039
      ],
      "type": "VEC2"
    },
    {
      "bufferView": 0,
      "byteOffset": 37464,
      "componentType": 5125,
      "count": 1236,
      "type": "SCALAR"
    },
    {
      "bufferView": 2,
      "byteOffset": 146136,
      "componentType": 5126,
      "count": 124,
      "max": [
        -60.16166687011719,
        60.19507598876953,
        1.9887676239013672
      ],
      "min": [
        -138.7804412841797,
        -43.60019302368164,
        -4.011229991912842
      ],
      "type": "VEC3"
    },
    {
      "bufferView": 2,
      "byteOffset": 147624,
      "componentType": 5126,
      "count": 124,
      "max": [
        0.9238814115524292,
        9.795196120876426e-08,
        1.0
      ],
      "min": [
        -0.9238820672035217,
        -1.0,
        -1.0
      ],
      "type": "VEC3"
    },
    {
      "bufferView": 1,
      "byteOffset": 46984,
      "componentType": 5126,
      "count": 124,
      "max": [
        1.0,
        0.9793750047683716
      ],
      "min": [
        0.0,
        0.2123750001192093
      ],
      "type": "VEC2"
    },
    {
      "bufferView": 0,
      "byteOffset": 42408,
      "componentType": 5125,
      "count": 192,
      "type": "SCALAR"
    },
    {
      "bufferView": 2,
      "byteOffset": 149112,
      "componentType": 5126,
      "count": 676,
      "max": [
        67.47676849365234,
        199.0406951904297,
        167.5692138671875
      ],
      "min": [
        -252.3184356689453,
        -74.92472839355469,
        153.77679443359375
      ],
      "type": "VEC3"
    },
    {
      "bufferView": 2,
      "byteOffset": 157224,
      "componentType": 5126,
      "count": 676,
      "max": [
        1.0,
        1.0,
        1.0
      ],
      "min": [
        -1.0,
        -1.0,
        -1.0
      ],
      "type": "VEC3"
    },
    {
      "bufferView": 1,
      "byteOffset": 47976,
      "componentType": 5126,
      "count": 676,
      "max": [
        55.458866119384766,
        75.5501937866211
      ],
      "min": [
        -55.278831481933594,
        -75.21600341796875
      ],
      "type": "VEC2"
    },
    {
      "bufferView": 0,
      "byteOffset": 43176,
      "componentType": 5125,
      "count": 984,
      "type": "SCALAR"
    },
    {
      "bufferView": 2,
      "byteOffset": 165336,
      "componentType": 5126,
      "count": 120,
      "max": [
        35.80018997192383,
        73.43451690673828,
        23.07364273071289
      ],
      "min": [
        -35.80018997192383,
        0.0,
        -23.07364273071289
      ],
      "type": "VEC3"
    },
    {
      "bufferView": 2,
      "byteOffset": 166776,
      "componentType": 5126,
      "count": 120,
      "max": [
        1.0,
        1.0,
        1.0
      ],
      "min": [
        -1.0,
        -1.0,
        -1.0
      ],
      "type": "VEC3"
    },
    {
      "bufferView": 1,
      "byteOffset": 53384,
      "componentType": 5126,
      "count": 120,
      "max": [
        1.0,
        1.0
      ],
      "min": [
        0.0,
        0.0
      ],
      "type": "VEC2"
    },
    {
      "bufferView": 0,
      "byteOffset": 47112,
      "componentType": 5125,
      "count": 228,
      "type": "SCALAR"
    },
    {
      "bufferView": 2,
      "byteOffset": 168216,
      "componentType": 5126,
      "count": 120,
      "max": [
        35.80018997192383,
        73.43451690673828,
        23.07364273071289
      ],
      "min": [
        -35.80018997192383,
        0.0,
        -23.07364273071289
      ],
      "type": "VEC3"
    },
    {
      "bufferView": 2,
      "byteOffset": 169656,
      "componentType": 5126,
      "count": 120,
      "max": [
        1.0,
        1.0,
        1.0
      ],
      "min": [
        -1.0,
        -1.0,
        -1.0
      ],
      "type": "VEC3"
    },
    {
      "bufferView": 1,
      "byteOffset": 54344,
      "componentType": 5126,
      "count": 120,
      "max": [
        1.0,
        1.0
      ],
      "min": [
        0.0,
        0.0
      ],
      "type": "VEC2"
    },
    {
      "bufferView": 0,
      "byteOffset": 48024,
      "componentType": 5125,
      "count": 228,
      "type": "SCALAR"
    },
    {
      "bufferView": 2,
      "byteOffset": 171096,
      "componentType": 5126,
      "count": 120,
      "max": [
        35.80018997192383,
        73.43451690673828,
        23.07364273071289
      ],
      "min": [
        -35.80018997192383,
        0.0,
        -23.07364273071289
      ],
      "type": "VEC3"
    },
    {
      "bufferView": 2,
      "byteOffset": 172536,
      "componentType": 5126,
      "count": 120,
      "max": [
        1.0,
        1.0,
        1.0
      ],
      "min": [
        -1.0,
        -1.0,
        -1.0
      ],
      "type": "VEC3"
    },
    {
      "bufferView": 1,
      "byteOffset": 55304,
      "componentType": 5126,
      "count": 120,
      "max": [
        1.0,
        1.0
      ],
      "min": [
        0.0,
        0.0
      ],
      "type": "VEC2"
    },
    {
      "bufferView": 0,
      "byteOffset": 48936,
      "componentType": 5125,
      "count": 228,
      "type": "SCALAR"
    },
    {
      "bufferView": 2,
      "byteOffset": 173976,
      "componentType": 5126,
      "count": 120,
      "max": [
        35.80018997192383,
        73.43451690673828,
        23.07364273071289
      ],
      "min": [
        -35.80018997192383,
        0.0,
        -23.07364273071289
      ],
      "type": "VEC3"
    },
    {
      "bufferView": 2,
      "byteOffset": 175416,
      "componentType": 5126,
      "count": 120,
      "max": [
        1.0,
        1.0,
        1.0
      ],
      "min": [
        -1.0,
        -1.0,
        -1.0
      ],
      "type": "VEC3"
    },
    {
      "bufferView": 1,
      "byteOffset": 56264,
      "componentType": 5126,
      "count": 120,
      "max": [
        1.0,
        1.0
      ],
      "min": [
        0.0,
        0.0
      ],
      "type": "VEC2"
    },
    {
      "bufferView": 0,
      "byteOffset": 49848,
      "componentType": 5125,
      "count": 228,
      "type": "SCALAR"
    },
    {
      "bufferView": 2,
      "byteOffset": 176856,
      "componentType": 5126,
      "count": 120,
      "max": [
        35.80018997192383,
        73.43451690673828,
        23.07364273071289
      ],
      "min": [
        -35.80018997192383,
        0.0,
        -23.07364273071289
      ],
      "type": "VEC3"
    },
    {
      "bufferView": 2,
      "byteOffset": 178296,
      "componentType": 5126,
      "count": 120,
      "max": [
        1.0,
        1.0,
        1.0
      ],
      "min": [
        -1.0,
        -1.0,
        -1.0
      ],
      "type": "VEC3"
    },
    {
      "bufferView": 1,
      "byteOffset": 57224,
      "componentType": 5126,
      "count": 120,
      "max": [
        1.0,
        1.0
      ],
      "min": [
        0.0,
        0.0
      ],
      "type": "VEC2"
    },
    {
      "bufferView": 0,
      "byteOffset": 50760,
      "componentType": 5125,
      "count": 228,
      "type": "SCALAR"
    },
    {
      "bufferView": 2,
      "byteOffset": 179736,
      "componentType": 5126,
      "count": 120,
      "max": [
        35.80018997192383,
        73.43451690673828,
        23.07364273071289
      ],
      "min": [
        -35.80018997192383,
        0.0,
        -23.07364273071289
      ],
      "type": "VEC3"
    },
    {
      "bufferView": 2,
      "byteOffset": 181176,
      "componentType": 5126,
      "count": 120,
      "max": [
        1.0,
        1.0,
        1.0
      ],
      "min": [
        -1.0,
        -1.0,
        -1.0
      ],
      "type": "VEC3"
    },
    {
      "bufferView": 1,
      "byteOffset": 58184,
      "componentType": 5126,
      "count": 120,
      "max": [
        1.0,
        1.0
      ],
      "min": [
        0.0,
        0.0
      ],
      "type": "VEC2"
    },
    {
      "bufferView": 0,
      "byteOffset": 51672,
      "componentType": 5125,
      "count": 228,
      "type": "SCALAR"
    },
    {
      "bufferView": 2,
      "byteOffset": 182616,
      "componentType": 5126,
      "count": 70,
      "max": [
        50.0,
        37.5,
        95.0
      ],
      "min": [
        -50.0,
        -2.500016689300537,
        0.0
      ],
      "type": "VEC3"
    },
    {
      "bufferView": 2,
      "byteOffset": 183456,
      "componentType": 5126,
      "count": 70,
      "max": [
        1.0,
        1.0,
        1.0
      ],
      "min": [
        -1.0,
        -1.0,
        -1.0
      ],
      "type": "VEC3"
    },
    {
      "bufferView": 1,
      "byteOffset": 59144,
      "componentType": 5126,
      "count": 70,
      "max": [
        0.6666669845581055,
        0.6583330035209656
      ],
      "min": [
        0.33333298563957214,
        0.3416669964790344
      ],
      "type": "VEC2"
    },
    {
      "bufferView": 0,
      "byteOffset": 52584,
      "componentType": 5125,
      "count": 108,
      "type": "SCALAR"
    },
    {
      "bufferView": 2,
      "byteOffset": 184296,
      "componentType": 5126,
      "count": 1779,
      "max": [
        669.9999389648438,
        450.0,
        20.000072479248047
      ],
      "min": [
        -302.4999694824219,
        -98.13200378417969,
        -1114.9437255859375
      ],
      "type": "VEC3"
    },
    {
      "bufferView": 2,
      "byteOffset": 205644,
      "componentType": 5126,
      "count": 1779,
      "max": [
        1.0,
        1.0,
        1.0
      ],
      "min": [
        -1.0,
        -1.0,
        -1.0
      ],
      "type": "VEC3"
    },
    {
      "bufferView": 1,
      "byteOffset": 59704,
      "componentType": 5126,
      "count": 1779,
      "max": [
        0.0,
        0.0
      ],
      "min": [
        0.0,
        0.0
      ],
      "type": "VEC2"
    },
    {
      "bufferView": 0,
      "byteOffset": 53016,
      "componentType": 5125,
      "count": 3720,
      "type": "SCALAR"
    },
    {
      "bufferView": 2,
      "byteOffset": 226992,
      "componentType": 5126,
      "count": 5390,
      "max": [
        14.703306198120117,
        583.9578857421875,
        9.244827270507813
      ],
      "min": [
        -934.2966918945313,
        -3.285308837890625,
        -1307.9434814453125
      ],
      "type": "VEC3"
    },
    {
      "bufferView": 2,
      "byteOffset": 291672,
      "componentType": 5126,
      "count": 5390,
      "max": [
        1.0,
        1.0,
        1.0
      ],
      "min": [
        -1.0,
        -1.0,
        -1.0
      ],
      "type": "VEC3"
    },
    {
      "bufferView": 1,
      "byteOffset": 73936,
      "componentType": 5126,
      "count": 5390,
      "max": [
        0.0,
        0.0
      ],
      "min": [
        0.0,
        0.0
      ],
      "type": "VEC2"
    },
    {
      "bufferView": 0,
      "byteOffset": 67896,
      "componentType": 5125,
      "count": 10452,
      "type": "SCALAR"
    },
    {
      "bufferView": 2,
      "byteOffset": 356352,
      "componentType": 5126,
      "count": 1193,
      "max": [
        36.77504348754883,
        266.1313171386719,
        547.2326049804688
      ],
      "min": [
        -1517.52685546875,
        -464.99151611328125,
        -773.8289794921875
      ],
      "type": "VEC3"
    },
    {
      "bufferView": 2,
      "byteOffset": 370668,
      "componentType": 5126,
      "count": 1193,
      "max": [
        1.0,
        1.0,
        1.0
      ],
      "min": [
        -1.0,
        -1.0,
        -1.0
      ],
      "type": "VEC3"
    },
    {
      "bufferView": 1,
      "byteOffset": 117056,
      "componentType": 5126,
      "count": 1193,
      "max": [
        3.090502977371216,
        2.701770067214966
      ],
      "min": [
        -2.090502977371216,
        -1.7017699480056763
      ],
      "type": "VEC2"
    },
    {
      "bufferView": 0,
      "byteOffset": 109704,
      "componentType": 5125,
      "count": 2862,
      "type": "SCALAR"
    },
    {
      "bufferView": 2,
      "byteOffset": 384984,
      "componentType": 5126,
      "count": 960,
      "max": [
        85.18737030029297,
        216.11239624023438,
        123.67689514160156
      ],
      "min": [
        -635.0322875976563,
        -148.41049194335938,
        -616.650634765625
      ],
      "type": "VEC3"
    },
    {
      "bufferView": 2,
      "byteOffset": 396504,
      "componentType": 5126,
      "count": 960,
      "max": [
        1.0,
        1.0,
        1.0
      ],
      "min": [
        -1.0,
        -1.0,
        -1.0
      ],
      "type": "VEC3"
    },
    {
      "bufferView": 1,
      "byteOffset": 126600,
      "componentType": 5126,
      "count": 960,
      "max": [
        90.0655517578125,
        216.98439025878906
      ],
      "min": [
        -630.0481567382813,
        -147.53848266601563
      ],
      "type": "VEC2"
    },
    {
      "bufferView": 0,
      "byteOffset": 121152,
      "componentType": 5125,
      "count": 1464,
      "type": "SCALAR"
    },
    {
      "bufferView": 2,
      "byteOffset": 408024,
      "componentType": 5126,
      "count": 72,
      "max": [
        50.0,
        104.99999237060547,
        10.000017166137695
      ],
      "min": [
        -50.0,
        -109.52336883544922,
        -1.6999998479150236e-05
      ],
      "type": "VEC3"
    },
    {
      "bufferView": 2,
      "byteOffset": 408888,
      "componentType": 5126,
      "count": 72,
      "max": [
        1.0,
        1.0,
        1.0
      ],
      "min": [
        -1.0,
        -1.0,
        -1.0
      ],
      "type": "VEC3"
    },
    {
      "bufferView": 1,
      "byteOffset": 134280,
      "componentType": 5126,
      "count": 72,
      "max": [
        0.0,
        0.0
      ],
      "min": [
        0.0,
        0.0
      ],
      "type": "VEC2"
    },
    {
      "bufferView": 0,
      "byteOffset": 127008,
      "componentType": 5125,
      "count": 132,
      "type": "SCALAR"
    },
    {
      "bufferView": 2,
      "byteOffset": 409752,
      "componentType": 5126,
      "count": 170,
      "max": [
        21.485597610473633,
        243.2982940673828,
        533.045166015625
      ],
      "min": [
        -1497.981689453125,
        -384.991455078125,
        -746.5657958984375
      ],
      "type": "VEC3"
    },
    {
      "bufferView": 2,
      "byteOffset": 411792,
      "componentType": 5126,
      "count": 170,
      "max": [
        1.0,
        1.0,
        1.0
      ],
      "min": [
        -1.0,
        -1.0,
        -1.0
      ],
      "type": "VEC3"
    },
    {
      "bufferView": 1,
      "byteOffset": 134856,
      "componentType": 5126,
      "count": 170,
      "max": [
        3.0324459075927734,
        2.6326849460601807
      ],
      "min": [
        -2.0324459075927734,
        -1.6326849460601807
      ],
      "type": "VEC2"
    },
    {
      "bufferView": 0,
      "byteOffset": 127536,
      "componentType": 5125,
      "count": 288,
      "type": "SCALAR"
    }
  ],
  "asset": {
    "extras": {
      "author": "Gerhald (https://sketchfab.com/Gerhald)",
      "license": "CC-BY-4.0 (http://creativecommons.org/licenses/by/4.0/)",
      "source": "https://sketchfab.com/3d-models/airport-building-31f007ca421840509221c3c7a1db8622",
      "title": "Airport Building"
    },
    "generator": "Sketchfab-16.75.0",
    "version": "2.0"
  },
  "bufferViews": [
    {
      "buffer": 0,
      "byteLength": 128688,
      "name": "floatBufferViews",
      "target": 34963
    },
    {
      "buffer": 0,
      "byteLength": 136216,
      "byteOffset": 128688,
      "byteStride": 8,
      "name": "floatBufferViews",
      "target": 34962
    },
    {
      "buffer": 0,
      "byteLength": 413832,
      "byteOffset": 264904,
      "byteStride": 12,
      "name": "floatBufferViews",
      "target": 34962
    }
  ],
  "buffers": [
    {
      "byteLength": 678736,
      "uri": "scene.bin"
    }
  ],
  "images": [
    {
      "uri": "textures/wood_baseColor.jpeg"
    },
    {
      "uri": "textures/stone_2_nesura_600x600x180_baseColor.jpeg"
    },
    {
      "uri": "textures/stucco_white_300x300_baseColor.jpeg"
    }
  ],
  "materials": [
    {
      "doubleSided": true,
      "name": "wood",
      "pbrMetallicRoughness": {
        "baseColorTexture": {
          "index": 0
        },
        "metallicFactor": 0.0,
        "roughnessFactor": 0.9838109834923373
      }
    },
    {
      "doubleSided": true,
      "name": "Glass_netto",
      "pbrMetallicRoughness": {
        "baseColorFactor": [
          0.109804,
          0.168627,
          0.278431,
          1.0
        ],
        "metallicFactor": 0.0,
        "roughnessFactor": 0.9633175107709767
      }
    },
    {
      "doubleSided": true,
      "name": "stone_2_nesura_600x600x180",
      "pbrMetallicRoughness": {
        "baseColorTexture": {
          "index": 1
        },
        "metallicFactor": 0.0,
        "roughnessFactor": 0.805371078616933
      }
    },
    {
      "doubleSided": true,
      "name": "Antena_Red",
      "pbrMetallicRoughness": {
        "baseColorFactor": [
          0.705882,
          0.007843,
          0.007843,
          1.0
        ],
        "metallicFactor": 0.0,
        "roughnessFactor": 0.9650623118410955
      }
    },
    {
      "doubleSided": true,
      "name": "Metall_white",
      "pbrMetallicRoughness": {
        "baseColorFactor": [
          0.937255,
          0.937255,
          0.937255,
          1.0
        ],
        "metallicFactor": 0.0,
        "roughnessFactor": 0.7904234107748435
      }
    },
    {
      "doubleSided": true,
      "name": "steel_profil_1",
      "pbrMetallicRoughness": {
        "baseColorFactor": [
          0.356863,
          0.356863,
          0.356863,
          1.0
        ],
        "metallicFactor": 0.0,
        "roughnessFactor": 0.9202030073345493
      }
    },
    {
      "doubleSided": true,
      "name": "Antena",
      "pbrMetallicRoughness": {
        "baseColorFactor": [
          0.588,
          0.588,
          0.588,
          1.0
        ],
        "metallicFactor": 0.0,
        "roughnessFactor": 0.8685192029230123
      }
    },
    {
      "doubleSided": true,
      "name": "stucco_white_300x300",
      "pbrMetallicRoughness": {
        "baseColorFactor": [
          0.4739062061903426,
          0.4739062061903426,
          0.4739062061903426,
          1.0
        ],
        "baseColorTexture": {
          "index": 2
        },
        "metallicFactor": 0.0,
        "roughnessFactor": 0.7763932022500211
      }
    },
    {
      "doubleSided": true,
      "name": "stucco_bez_300x300",
      "pbrMetallicRoughness": {
        "baseColorTexture": {
          "index": 2
        },
        "metallicFactor": 0.0,
        "roughnessFactor": 0.7763932022500211
      }
    }
  ],
  "meshes": [
    {
      "name": "Object01_wood_0",
      "primitives": [
        {
          "attributes": {
            "NORMAL": 1,
            "POSITION": 0,
            "TEXCOORD_0": 2
          },
          "indices": 3,
          "material": 0,
          "mode": 4
        }
      ]
    },
    {
      "name": "Window_glass02_Glass netto_0",
      "primitives": [
        {
          "attributes": {
            "NORMAL": 5,
            "POSITION": 4
          },
          "indices": 6,
          "material": 1,
          "mode": 4
        }
      ]
    },
    {
      "name": "Window_glass01_Glass netto_0",
      "primitives": [
        {
          "attributes": {
            "NORMAL": 8,
            "POSITION": 7
          },
          "indices": 9,
          "material": 1,
          "mode": 4
        }
      ]
    },
    {
      "name": "Rectangle01_wood_0",
      "primitives": [
        {
          "attributes": {
            "NORMAL": 11,
            "POSITION": 10,
            "TEXCOORD_0": 12
          },
          "indices": 13,
          "material": 0,
          "mode": 4
        }
      ]
    },
    {
      "name": "Rectangle02_wood_0",
      "primitives": [
        {
          "attributes": {
            "NORMAL": 15,
            "POSITION": 14,
            "TEXCOORD_0": 16
          },
          "indices": 17,
          "material": 0,
          "mode": 4
        }
      ]
    },
    {
      "name": "Object002_wood_0",
      "primitives": [
        {
          "attributes": {
            "NORMAL": 19,
            "POSITION": 18,
            "TEXCOORD_0": 20
          },
          "indices": 21,
          "material": 0,
          "mode": 4
        }
      ]
    },
    {
      "name": "Object003_stone 2 nesura 600x600x180_0",
      "primitives": [
        {
          "attributes": {
            "NORMAL": 23,
            "POSITION": 22,
            "TEXCOORD_0": 24
          },
          "indices": 25,
          "material": 2,
          "mode": 4
        }
      ]
    },
    {
      "name": "flagpole02_Antena_Red_0",
      "primitives": [
        {
          "attributes": {
            "NORMAL": 27,
            "POSITION": 26,
            "TEXCOORD_0": 28
          },
          "indices": 29,
          "material": 3,
          "mode": 4
        }
      ]
    },
    {
      "name": "flagpole02_Metall_white_0",
      "primitives": [
        {
          "attributes": {
            "NORMAL": 31,
            "POSITION": 30,
            "TEXCOORD_0": 32
          },
          "indices": 33,
          "material": 4,
          "mode": 4
        }
      ]
    },
    {
      "name": "flagpole03_Antena_Red_0",
      "primitives": [
        {
          "attributes": {
            "NORMAL": 35,
            "POSITION": 34,
            "TEXCOORD_0": 36
          },
          "indices": 37,
          "material": 3,
          "mode": 4
        }
      ]
    },
    {
      "name": "flagpole03_Metall_white_0",
      "primitives": [
        {
          "attributes": {
            "NORMAL": 39,
            "POSITION": 38,
            "TEXCOORD_0": 40
          },
          "indices": 41,
          "material": 4,
          "mode": 4
        }
      ]
    },
    {
      "name": "flagpole01_Antena_Red_0",
      "primitives": [
        {
          "attributes": {
            "NORMAL": 43,
            "POSITION": 42,
            "TEXCOORD_0": 44
          },
          "indices": 45,
          "material": 3,
          "mode": 4
        }
      ]
    },
    {
      "name": "flagpole01_Metall_white_0",
      "primitives": [
        {
          "attributes": {
            "NORMAL": 47,
            "POSITION": 46,
            "TEXCOORD_0": 48
          },
          "indices": 49,
          "material": 4,
          "mode": 4
        }
      ]
    },
    {
      "name": "Box704_steel profil 1_0",
      "primitives": [
        {
          "attributes": {
            "NORMAL": 51,
            "POSITION": 50,
            "TEXCOORD_0": 52
          },
          "indices": 53,
          "material": 5,
          "mode": 4
        }
      ]
    },
    {
      "name": "Box703_steel profil 1_0",
      "primitives": [
        {
          "attributes": {
            "NORMAL": 55,
            "POSITION": 54,
            "TEXCOORD_0": 56
          },
          "indices": 57,
          "material": 5,
          "mode": 4
        }
      ]
    },
    {
      "name": "Box001_steel profil 1_0",
      "primitives": [
        {
          "attributes": {
            "NORMAL": 59,
            "POSITION": 58,
            "TEXCOORD_0": 60
          },
          "indices": 61,
          "material": 5,
          "mode": 4
        }
      ]
    },
    {
      "name": "Line021_Metall_white_0",
      "primitives": [
        {
          "attributes": {
            "NORMAL": 63,
            "POSITION": 62,
            "TEXCOORD_0": 64
          },
          "indices": 65,
          "material": 4,
          "mode": 4
        }
      ]
    },
    {
      "name": "Line021_Antena_Red_0",
      "primitives": [
        {
          "attributes": {
            "NORMAL": 67,
            "POSITION": 66,
            "TEXCOORD_0": 68
          },
          "indices": 69,
          "material": 3,
          "mode": 4
        }
      ]
    },
    {
      "name": "Line021_Antena_0",
      "primitives": [
        {
          "attributes": {
            "NORMAL": 71,
            "POSITION": 70,
            "TEXCOORD_0": 72
          },
          "indices": 73,
          "material": 6,
          "mode": 4
        }
      ]
    },
    {
      "name": "Box410_steel profil 1_0",
      "primitives": [
        {
          "attributes": {
            "NORMAL": 75,
            "POSITION": 74,
            "TEXCOORD_0": 76
          },
          "indices": 77,
          "material": 5,
          "mode": 4
        }
      ]
    },
    {
      "name": "Box484_steel profil 1_0",
      "primitives": [
        {
          "attributes": {
            "NORMAL": 79,
            "POSITION": 78,
            "TEXCOORD_0": 80
          },
          "indices": 81,
          "material": 5,
          "mode": 4
        }
      ]
    },
    {
      "name": "Box629_steel profil 1_0",
      "primitives": [
        {
          "attributes": {
            "NORMAL": 83,
            "POSITION": 82,
            "TEXCOORD_0": 84
          },
          "indices": 85,
          "material": 5,
          "mode": 4
        }
      ]
    },
    {
      "name": "Box630_steel profil 1_0",
      "primitives": [
        {
          "attributes": {
            "NORMAL": 87,
            "POSITION": 86,
            "TEXCOORD_0": 88
          },
          "indices": 89,
          "material": 5,
          "mode": 4
        }
      ]
    },
    {
      "name": "Box337_steel profil 1_0",
      "primitives": [
        {
          "attributes": {
            "NORMAL": 91,
            "POSITION": 90,
            "TEXCOORD_0": 92
          },
          "indices": 93,
          "material": 5,
          "mode": 4
        }
      ]
    },
    {
      "name": "Box411_steel profil 1_0",
      "primitives": [
        {
          "attributes": {
            "NORMAL": 95,
            "POSITION": 94,
            "TEXCOORD_0": 96
          },
          "indices": 97,
          "material": 5,
          "mode": 4
        }
      ]
    },
    {
      "name": "Stairs01_stucco white 300x300_0",
      "primitives": [
        {
          "attributes": {
            "NORMAL": 99,
            "POSITION": 98,
            "TEXCOORD_0": 100
          },
          "indices": 101,
          "material": 7,
          "mode": 4
        }
      ]
    },
    {
      "name": "Window_frames02_wood_0",
      "primitives": [
        {
          "attributes": {
            "NORMAL": 103,
            "POSITION": 102,
            "TEXCOORD_0": 104
          },
          "indices": 105,
          "material": 0,
          "mode": 4
        }
      ]
    },
    {
      "name": "Window_frames01_wood_0",
      "primitives": [
        {
          "attributes": {
            "NORMAL": 107,
            "POSITION": 106,
            "TEXCOORD_0": 108
          },
          "indices": 109,
          "material": 0,
          "mode": 4
        }
      ]
    },
    {
      "name": "Walls01_stucco bez 300x300_0",
      "primitives": [
        {
          "attributes": {
            "NORMAL": 111,
            "POSITION": 110,
            "TEXCOORD_0": 112
          },
          "indices": 113,
          "material": 8,
          "mode": 4
        }
      ]
    },
    {
      "name": "sunshade01_wood_0",
      "primitives": [
        {
          "attributes": {
            "NORMAL": 115,
            "POSITION": 114,
            "TEXCOORD_0": 116
          },
          "indices": 117,
          "material": 0,
          "mode": 4
        }
      ]
    },
    {
      "name": "Door01_wood_0",
      "primitives": [
        {
          "attributes": {
            "NORMAL": 119,
            "POSITION": 118,
            "TEXCOORD_0": 120
          },
          "indices": 121,
          "material": 0,
          "mode": 4
        }
      ]
    },
    {
      "name": "Floors01_stucco white 300x300_0",
      "primitives": [
        {
          "attributes": {
            "NORMAL": 123,
            "POSITION": 122,
            "TEXCOORD_0": 124
          },
          "indices": 125,
          "material": 7,
          "mode": 4
        }
      ]
    }
  ],
  "nodes": [
    {
      "children": [
        1
      ],
      "matrix": [
        1.0,
        0.0,
        0.0,
        0.0,
        0.0,
        2.220446049250313e-16,
        -1.0,
        0.0,
        0.0,
        1.0,
        2.220446049250313e-16,
        0.0,
        0.0,
        0.0,
        0.0,
        1.0
      ],
      "name": "Sketchfab_model"
    },
    {
      "children": [
        2
      ],
      "matrix": [
        0.009999999776482582,
        0.0,
        0.0,
        0.0,
        0.0,
        0.0,
        0.009999999776482582,
        0.0,
        0.0,
        -0.009999999776482582,
        0.0,
        0.0,
        0.0,
        0.0,
        0.0,
        1.0
      ],
      "name": "dfb311ae919e41de975c86e97e039224.fbx"
    },
    {
      "children": [
        3,
        5,
        7,
        9,
        11,
        13,
        15,
        17,
        20,
        23,
        26,
        28,
        30,
        32,
        36,
        38,
        40,
        42,
        44,
        46,
        48,
        50,
        52,
        54,
        56,
        58,
        60
      ],
      "name": "RootNode"
    },
    {
      "children": [
        4
      ],
      "matrix": [
        1.0,
        0.0,
        0.0,
        0.0,
        0.0,
        1.0,
        0.0,
        0.0,
        0.0,
        0.0,
        1.0,
        0.0,
        140.58949279785156,
        593.0657958984375,
        506.2552795410156,
        1.0
      ],
      "name": "Object01"
    },
    {
      "mesh": 0,
      "name": "Object01_wood_0"
    },
    {
      "children": [
        6
      ],
      "matrix": [
        1.0,
        0.0,
        0.0,
        0.0,
        0.0,
        1.0,
        0.0,
        0.0,
        0.0,
        0.0,
        1.0,
        0.0,
        -525.010986328125,
        125.0,
        463.7077941894531,
        1.0
      ],
      "name": "Window_glass02"
    },
    {
      "mesh": 1,
      "name": "Window_glass02_Glass netto_0"
    },
    {
      "children": [
        8
      ],
      "matrix": [
        1.0,
        0.0,
        0.0,
        0.0,
        0.0,
        1.0,
        0.0,
        0.0,
        0.0,
        0.0,
        1.0,
        0.0,
        425.1382751464844,
        121.13269805908203,
        652.2175903320313,
        1.0
      ],
      "name": "Window_glass01"
    },
    {
      "mesh": 2,
      "name": "Window_glass01_Glass netto_0"
    },
    {
      "children": [
        10
      ],
      "matrix": [
        1.0,
        0.0,
        0.0,
        0.0,
        0.0,
        1.0,
        0.0,
        0.0,
        0.0,
        0.0,
        1.0,
        0.0,
        -144.7415008544922,
        593.0645751953125,
        501.1838073730469,
        1.0
      ],
      "name": "Rectangle01"
    },
    {
      "mesh": 3,
      "name": "Rectangle01_wood_0"
    },
    {
      "children": [
        12
      ],
      "matrix": [
        1.0,
        0.0,
        0.0,
        0.0,
        0.0,
        1.0,
        0.0,
        0.0,
        0.0,
        0.0,
        1.0,
        0.0,
        -410.7793884277344,
        0.0,
        548.7078857421875,
        1.0
      ],
      "name": "Rectangle02"
    },
    {
      "mesh": 4,
      "name": "Rectangle02_wood_0"
    },
    {
      "children": [
        14
      ],
      "matrix": [
        1.0,
        0.0,
        0.0,
        0.0,
        0.0,
        1.0,
        0.0,
        0.0,
        0.0,
        0.0,
        1.0,
        0.0,
        542.51611328125,
        364.99139404296875,
        107.59320068359375,
        1.0
      ],
      "name": "Object002"
    },
    {
      "mesh": 5,
      "name": "Object002_wood_0"
    },
    {
      "children": [
        16
      ],
      "matrix": [
        1.0,
        0.0,
        0.0,
        0.0,
        0.0,
        1.0,
        0.0,
        0.0,
        0.0,
        0.0,
        1.0,
        0.0,
        542.51611328125,
        364.99139404296875,
        107.59320068359375,
        1.0
      ],
      "name": "Object003"
    },
    {
      "mesh": 6,
      "name": "Object003_stone 2 nesura 600x600x180_0"
    },
    {
      "children": [
        18,
        19
      ],
      "matrix": [
        1.0,
        0.0,
        0.0,
        0.0,
        0.0,
        1.0,
        0.0,
        0.0,
        0.0,
        0.0,
        1.0,
        0.0,
        1394.52978515625,
        -0.00019999999494757503,
        -810.435302734375,
        1.0
      ],
      "name": "flagpole02"
    },
    {
      "mesh": 7,
      "name": "flagpole02_Antena_Red_0"
    },
    {
      "mesh": 8,
      "name": "flagpole02_Metall_white_0"
    },
    {
      "children": [
        21,
        22
      ],
      "matrix": [
        1.0,
        0.0,
        0.0,
        0.0,
        0.0,
        1.0,
        0.0,
        0.0,
        0.0,
        0.0,
        1.0,
        0.0,
        1394.52978515625,
        -0.00019999999494757503,
        -236.1284942626953,
        1.0
      ],
      "name": "flagpole03"
    },
    {
      "mesh": 9,
      "name": "flagpole03_Antena_Red_0"
    },
    {
      "mesh": 10,
      "name": "flagpole03_Metall_white_0"
    },
    {
      "children": [
        24,
        25
      ],
      "matrix": [
        1.0,
        0.0,
        0.0,
        0.0,
        0.0,
        1.0,
        0.0,
        0.0,
        0.0,
        0.0,
        1.0,
        0.0,
        1394.52978515625,
        -0.00019999999494757503,
        415.35028076171875,
        1.0
      ],
      "name": "flagpole01"
    },
    {
      "mesh": 11,
      "name": "flagpole01_Antena_Red_0"
    },
    {
      "mesh": 12,
      "name": "flagpole01_Metall_white_0"
    },
    {
      "children": [
        27
      ],
      "matrix": [
        1.0,
        0.0,
        0.0,
        0.0,
        0.0,
        1.0,
        0.0,
        0.0,
        0.0,
        0.0,
        1.0,
        0.0,
        -369.9718017578125,
        -9.999999747378752e-05,
        517.7559814453125,
        1.0
      ],
      "name": "Box704"
    },
    {
      "mesh": 13,
      "name": "Box704_steel profil 1_0"
    },
    {
      "children": [
        29
      ],
      "matrix": [
        1.0,
        0.0,
        0.0,
        0.0,
        0.0,
        1.0,
        0.0,
        0.0,
        0.0,
        0.0,
        1.0,
        0.0,
        558.8314819335938,
        263.0509948730469,
        668.1072387695313,
        1.0
      ],
      "name": "Box703"
    },
    {
      "mesh": 14,
      "name": "Box703_steel profil 1_0"
    },
    {
      "children": [
        31
      ],
      "matrix": [
        1.0,
        0.0,
        0.0,
        0.0,
        0.0,
        1.0,
        0.0,
        0.0,
        0.0,
        0.0,
        1.0,
        0.0,
        572.9545288085938,
        557.1466064453125,
        703.4215087890625,
        1.0
      ],
      "name": "Box001"
    },
    {
      "mesh": 15,
      "name": "Box001_steel profil 1_0"
    },
    {
      "children": [
        33,
        34,
        35
      ],
      "matrix": [
        1.0,
        0.0,
        0.0,
        0.0,
        0.0,
        1.0,
        0.0,
        0.0,
        0.0,
        0.0,
        1.0,
        0.0,
        466.21490478515625,
        683.214599609375,
        -321.577392578125,
        1.0
      ],
      "name": "Line021"
    },
    {
      "mesh": 16,
      "name": "Line021_Metall_white_0"
    },
    {
      "mesh": 17,
      "name": "Line021_Antena_Red_0"
    },
    {
      "mesh": 18,
      "name": "Line021_Antena_0"
    },
    {
      "children": [
        37
      ],
      "matrix": [
        1.0,
        0.0,
        0.0,
        0.0,
        0.0,
        1.0,
        0.0,
        0.0,
        0.0,
        0.0,
        1.0,
        0.0,
        -98.29059600830078,
        612.8421020507813,
        -112.96869659423828,
        1.0
      ],
      "name": "Box410"
    },
    {
      "mesh": 19,
      "name": "Box410_steel profil 1_0"
    },
    {
      "children": [
        39
      ],
      "matrix": [
        1.0,
        0.0,
        0.0,
        0.0,
        0.0,
        1.0,
        0.0,
        0.0,
        0.0,
        0.0,
        1.0,
        0.0,
        -606.5945434570313,
        612.8421020507813,
        77.00039672851563,
        1.0
      ],
      "name": "Box484"
    },
    {
      "mesh": 20,
      "name": "Box484_steel profil 1_0"
    },
    {
      "children": [
        41
      ],
      "matrix": [
        1.0,
        0.0,
        0.0,
        0.0,
        0.0,
        1.0,
        0.0,
        0.0,
        0.0,
        0.0,
        1.0,
        0.0,
        -606.5945434570313,
        612.8421020507813,
        -112.96869659423828,
        1.0
      ],
      "name": "Box629"
    },
    {
      "mesh": 21,
      "name": "Box629_steel profil 1_0"
    },
    {
      "children": [
        43
      ],
      "matrix": [
        1.0,
        0.0,
        0.0,
        0.0,
        0.0,
        1.0,
        0.0,
        0.0,
        0.0,
        0.0,
        1.0,
        0.0,
        -606.5945434570313,
        612.8421020507813,
        -305.36981201171875,
        1.0
      ],
      "name": "Box630"
    },
    {
      "mesh": 22,
      "name": "Box630_steel profil 1_0"
    },
    {
      "children": [
        45
      ],
      "matrix": [
        1.0,
        0.0,
        0.0,
        0.0,
        0.0,
        1.0,
        0.0,
        0.0,
        0.0,
        0.0,
        1.0,
        0.0,
        -98.29059600830078,
        612.8421020507813,
        -305.36981201171875,
        1.0
      ],
      "name": "Box337"
    },
    {
      "mesh": 23,
      "name": "Box337_steel profil 1_0"
    },
    {
      "children": [
        47
      ],
      "matrix": [
        1.0,
        0.0,
        0.0,
        0.0,
        0.0,
        1.0,
        0.0,
        0.0,
        0.0,
        0.0,
        1.0,
        0.0,
        -98.29059600830078,
        612.8421020507813,
        77.00039672851563,
        1.0
      ],
      "name": "Box411"
    },
    {
      "mesh": 24,
      "name": "Box411_steel profil 1_0"
    },
    {
      "children": [
        49
      ],
      "matrix": [
        1.0,
        0.0,
        0.0,
        0.0,
        0.0,
        1.0,
        0.0,
        0.0,
        0.0,
        0.0,
        1.0,
        0.0,
        -525.010986328125,
        -1.555799961090088,
        393.7077941894531,
        1.0
      ],
      "name": "Stairs01"
    },
    {
      "mesh": 25,
      "name": "Stairs01_stucco white 300x300_0"
    },
    {
      "children": [
        51
      ],
      "matrix": [
        1.0,
        0.0,
        0.0,
        0.0,
        0.0,
        1.0,
        0.0,
        0.0,
        0.0,
        0.0,
        1.0,
        0.0,
        -525.010986328125,
        125.0,
        453.7077941894531,
        1.0
      ],
      "name": "Window_frames02"
    },
    {
      "mesh": 26,
      "name": "Window_frames02_wood_0"
    },
    {
      "children": [
        53
      ],
      "matrix": [
        1.0,
        0.0,
        0.0,
        0.0,
        0.0,
        1.0,
        0.0,
        0.0,
        0.0,
        0.0,
        1.0,
        0.0,
        562.702880859375,
        0.0,
        638.7078857421875,
        1.0
      ],
      "name": "Window_frames01"
    },
    {
      "mesh": 27,
      "name": "Window_frames01_wood_0"
    },
    {
      "children": [
        55
      ],
      "matrix": [
        1.0,
        0.0,
        0.0,
        0.0,
        0.0,
        1.0,
        0.0,
        0.0,
        0.0,
        0.0,
        1.0,
        0.0,
        542.51611328125,
        364.99139404296875,
        107.59320068359375,
        1.0
      ],
      "name": "Walls01"
    },
    {
      "mesh": 28,
      "name": "Walls01_stucco bez 300x300_0"
    },
    {
      "children": [
        57
      ],
      "matrix": [
        1.0,
        0.0,
        0.0,
        0.0,
        0.0,
        1.0,
        0.0,
        0.0,
        0.0,
        0.0,
        1.0,
        0.0,
        1210.555419921875,
        84.88490295410156,
        304.4228210449219,
        1.0
      ],
      "name": "sunshade01"
    },
    {
      "mesh": 29,
      "name": "sunshade01_wood_0"
    },
    {
      "children": [
        59
      ],
      "matrix": [
        1.0,
        0.0,
        0.0,
        0.0,
        0.0,
        1.0,
        0.0,
        0.0,
        0.0,
        0.0,
        1.0,
        0.0,
        -525.010986328125,
        145.0,
        413.7077941894531,
        1.0
      ],
      "name": "Door01"
    },
    {
      "mesh": 30,
      "name": "Door01_wood_0"
    },
    {
      "children": [
        61
      ],
      "matrix": [
        1.0,
        0.0,
        0.0,
        0.0,
        0.0,
        1.0,
        0.0,
        0.0,
        0.0,
        0.0,
        1.0,
        0.0,
        542.51611328125,
        364.99139404296875,
        107.59320068359375,
        1.0
      ],
      "name": "Floors01"
    },
    {
      "mesh": 31,
      "name": "Floors01_stucco white 300x300_0"
    }
  ],
  "samplers": [
    {
      "magFilter": 9729,
      "minFilter": 9987,
      "wrapS": 10497,
      "wrapT": 10497
    }
  ],
  "scene": 0,
  "scenes": [
    {
      "name": "Sketchfab_Scene",
      "nodes": [
        0
      ]
    }
  ],
  "textures": [
    {
      "sampler": 0,
      "source": 0
    },
    {
      "sampler": 0,
      "source": 1
    },
    {
      "sampler": 0,
      "source": 2
    }
  ]
}
