{
  "accessors": [
    {
      "bufferView": 2,
      "componentType": 5126,
      "count": 56,
      "max": [
        16.497116088867188,
        -27.947736740112305,
        -42.69502258300781
      ],
      "min": [
        9.263442993164063,
        -35.14289474487305,
        -50.969688415527344
      ],
      "type": "VEC3"
    },
    {
      "bufferView": 2,
      "byteOffset": 672,
      "componentType": 5126,
      "count": 56,
      "max": [
        0.9970483183860779,
        0.9260215163230896,
        0.17891180515289307
      ],
      "min": [
        -0.9273704886436462,
        -0.9885666370391846,
        -1.0
      ],
      "type": "VEC3"
    },
    {
      "bufferView": 3,
      "componentType": 5126,
      "count": 56,
      "max": [
        1.0,
        0.9996457099914551,
        0.072604700922966,
        1.0
      ],
      "min": [
        -0.9895715117454529,
        -0.9996275305747986,
        -0.07278972864151001,
        1.0
      ],
      "type": "VEC4"
    },
    {
      "bufferView": 1,
      "componentType": 5126,
      "count": 56,
      "max": [
        0.9143720269203186,
        0.4160333275794983
      ],
      "min": [
        0.6826104521751404,
        0.023508496582508087
      ],
      "type": "VEC2"
    },
    {
      "bufferView": 0,
      "componentType": 5125,
      "count": 156,
      "type": "SCALAR"
    },
    {
      "bufferView": 2,
      "byteOffset": 1344,
      "componentType": 5126,
      "count": 128,
      "max": [
        27.315170288085938,
        -33.80101776123047,
        -31.522586822509766
      ],
      "min": [
        25.470836639404297,
        -37.08378601074219,
        -37.404808044433594
      ],
      "type": "VEC3"
    },
    {
      "bufferView": 2,
      "byteOffset": 2880,
      "componentType": 5126,
      "count": 128,
      "max": [
        1.0,
        1.0,
        1.0
      ],
      "min": [
        -0.0016744969179853797,
        -1.0,
        -1.0
      ],
      "type": "VEC3"
    },
    {
      "bufferView": 3,
      "byteOffset": 896,
      "componentType": 5126,
      "count": 128,
      "max": [
        1.0,
        0.9985588788986206,
        1.0,
        1.0
      ],
      "min": [
        -0.5973294973373413,
        -1.0,
        -1.0,
        1.0
      ],
      "type": "VEC4"
    },
    {
      "bufferView": 1,
      "byteOffset": 448,
      "componentType": 5126,
      "count": 128,
      "max": [
        0.9807858467102051,
        0.9749439358711243
      ],
      "min": [
        0.23836910724639893,
        0.005444350186735392
      ],
      "type": "VEC2"
    },
    {
      "bufferView": 0,
      "byteOffset": 624,
      "componentType": 5125,
      "count": 402,
      "type": "SCALAR"
    },
    {
      "bufferView": 2,
      "byteOffset": 4416,
      "componentType": 5126,
      "count": 35,
      "max": [
        -43.06258773803711,
        32.41316223144531,
        -48.72308349609375
      ],
      "min": [
        -43.99326705932617,
        30.191482543945313,
        -49.65376281738281
      ],
      "type": "VEC3"
    },
    {
      "bufferView": 2,
      "byteOffset": 4836,
      "componentType": 5126,
      "count": 35,
      "max": [
        1.0,
        0.0,
        1.0
      ],
      "min": [
        -1.0,
        -1.0,
        -1.0
      ],
      "type": "VEC3"
    },
    {
      "bufferView": 3,
      "byteOffset": 2944,
      "componentType": 5126,
      "count": 35,
      "max": [
        0.9998754262924194,
        1.0,
        0.32404130697250366,
        1.0
      ],
      "min": [
        -0.1865653395652771,
        -0.9822887778282166,
        -0.35176849365234375,
        1.0
      ],
      "type": "VEC4"
    },
    {
      "bufferView": 1,
      "byteOffset": 1472,
      "componentType": 5126,
      "count": 35,
      "max": [
        0.9283405542373657,
        0.09824933111667633
      ],
      "min": [
        0.7788341641426086,
        0.024343930184841156
      ],
      "type": "VEC2"
    },
    {
      "bufferView": 0,
      "byteOffset": 2232,
      "componentType": 5125,
      "count": 120,
      "type": "SCALAR"
    },
    {
      "bufferView": 2,
      "byteOffset": 5256,
      "componentType": 5126,
      "count": 101,
      "max": [
        -39.91891098022461,
        33.88165283203125,
        -46.785400390625
      ],
      "min": [
        -44.72496032714844,
        32.281654357910156,
        -51.59144592285156
      ],
      "type": "VEC3"
    },
    {
      "bufferView": 2,
      "byteOffset": 6468,
      "componentType": 5126,
      "count": 101,
      "max": [
        1.0,
        1.0,
        1.0
      ],
      "min": [
        -1.0,
        -1.0,
        -1.0
      ],
      "type": "VEC3"
    },
    {
      "bufferView": 3,
      "byteOffset": 3504,
      "componentType": 5126,
      "count": 101,
      "max": [
        1.0,
        0.09921491891145706,
        1.0,
        1.0
      ],
      "min": [
        -1.0,
        -0.09957846999168396,
        -1.0,
        1.0
      ],
      "type": "VEC4"
    },
    {
      "bufferView": 1,
      "byteOffset": 1752,
      "componentType": 5126,
      "count": 101,
      "max": [
        0.7735705375671387,
        0.9869351387023926
      ],
      "min": [
        0.6686170101165771,
        0.08875616639852524
      ],
      "type": "VEC2"
    },
    {
      "bufferView": 0,
      "byteOffset": 2712,
      "componentType": 5125,
      "count": 330,
      "type": "SCALAR"
    },
    {
      "bufferView": 2,
      "byteOffset": 7680,
      "componentType": 5126,
      "count": 369,
      "max": [
        23.799407958984375,
        28.173568725585938,
        13.643682479858398
      ],
      "min": [
        5.358179092407227,
        -17.288284301757813,
        -34.323036193847656
      ],
      "type": "VEC3"
    },
    {
      "bufferView": 2,
      "byteOffset": 12108,
      "componentType": 5126,
      "count": 369,
      "max": [
        0.9983384609222412,
        0.9831124544143677,
        0.9998056888580322
      ],
      "min": [
        -0.999783456325531,
        -0.9821501970291138,
        -0.9981682300567627
      ],
      "type": "VEC3"
    },
    {
      "bufferView": 3,
      "byteOffset": 5120,
      "componentType": 5126,
      "count": 369,
      "max": [
        0.999597430229187,
        0.9840310215950012,
        0.9993262887001038,
        1.0
      ],
      "min": [
        -0.9990744590759277,
        -0.9923208951950073,
        -0.9990335702896118,
        1.0
      ],
      "type": "VEC4"
    },
    {
      "bufferView": 1,
      "byteOffset": 2560,
      "componentType": 5126,
      "count": 369,
      "max": [
        0.9865881204605103,
        1.9744949340820313
      ],
      "min": [
        0.9367395639419556,
        1.8551521301269531
      ],
      "type": "VEC2"
    },
    {
      "bufferView": 0,
      "byteOffset": 4032,
      "componentType": 5125,
      "count": 1680,
      "type": "SCALAR"
    },
    {
      "bufferView": 2,
      "byteOffset": 16536,
      "componentType": 5126,
      "count": 207,
      "max": [
        1.212869644165039,
        19.77173614501953,
        -30.306772232055664
      ],
      "min": [
        -2.705381393432617,
        13.14858627319336,
        -34.22502136230469
      ],
      "type": "VEC3"
    },
    {
      "bufferView": 2,
      "byteOffset": 19020,
      "componentType": 5126,
      "count": 207,
      "max": [
        1.0,
        1.0,
        1.0
      ],
      "min": [
        -1.0,
        -0.990446150302887,
        -1.0
      ],
      "type": "VEC3"
    },
    {
      "bufferView": 3,
      "byteOffset": 11024,
      "componentType": 5126,
      "count": 207,
      "max": [
        1.0,
        0.8329063653945923,
        1.0,
        1.0
      ],
      "min": [
        -1.0,
        -0.8842735290527344,
        -1.0,
        1.0
      ],
      "type": "VEC4"
    },
    {
      "bufferView": 1,
      "byteOffset": 5512,
      "componentType": 5126,
      "count": 207,
      "max": [
        0.986100971698761,
        0.9509879946708679
      ],
      "min": [
        0.8376861810684204,
        0.6107401251792908
      ],
      "type": "VEC2"
    },
    {
      "bufferView": 0,
      "byteOffset": 10752,
      "componentType": 5125,
      "count": 714,
      "type": "SCALAR"
    },
    {
      "bufferView": 2,
      "byteOffset": 21504,
      "componentType": 5126,
      "count": 178,
      "max": [
        19.79998779296875,
        -42.14898681640625,
        4.772832870483398
      ],
      "min": [
        10.415206909179688,
        -46.31956481933594,
        -4.442766189575195
      ],
      "type": "VEC3"
    },
    {
      "bufferView": 2,
      "byteOffset": 23640,
      "componentType": 5126,
      "count": 178,
      "max": [
        1.0,
        0.0,
        1.0
      ],
      "min": [
        -1.0,
        -1.0,
        -1.0
      ],
      "type": "VEC3"
    },
    {
      "bufferView": 3,
      "byteOffset": 14336,
      "componentType": 5126,
      "count": 178,
      "max": [
        0.9848883748054504,
        0.5223155617713928,
        1.0,
        1.0
      ],
      "min": [
        -0.9848882555961609,
        -1.0,
        -1.0,
        1.0
      ],
      "type": "VEC4"
    },
    {
      "bufferView": 1,
      "byteOffset": 7168,
      "componentType": 5126,
      "count": 178,
      "max": [
        0.9925661683082581,
        0.9632872939109802
      ],
      "min": [
        0.3179847002029419,
        0.025361064821481705
      ],
      "type": "VEC2"
    },
    {
      "bufferView": 0,
      "byteOffset": 13608,
      "componentType": 5125,
      "count": 636,
      "type": "SCALAR"
    },
    {
      "bufferView": 2,
      "byteOffset": 25776,
      "componentType": 5126,
      "count": 132,
      "max": [
        13.948768615722656,
        -46.05060577392578,
        -31.641489028930664
      ],
      "min": [
        10.481369018554688,
        -49.24123764038086,
        -35.0462646484375
      ],
      "type": "VEC3"
    },
    {
      "bufferView": 2,
      "byteOffset": 27360,
      "componentType": 5126,
      "count": 132,
      "max": [
        1.0,
        0.0,
        0.9848886132240295
      ],
      "min": [
        -1.0,
        -1.0,
        -0.9848894476890564
      ],
      "type": "VEC3"
    },
    {
      "bufferView": 3,
      "byteOffset": 17184,
      "componentType": 5126,
      "count": 132,
      "max": [
        1.0,
        0.08615802973508835,
        1.0,
        1.0
      ],
      "min": [
        -0.9936351180076599,
        -0.08616824448108673,
        -1.0,
        1.0
      ],
      "type": "VEC4"
    },
    {
      "bufferView": 1,
      "byteOffset": 8592,
      "componentType": 5126,
      "count": 132,
      "max": [
        0.9960530996322632,
        0.9864256381988525
      ],
      "min": [
        0.5296692848205566,
        0.7560387849807739
      ],
      "type": "VEC2"
    },
    {
      "bufferView": 0,
      "byteOffset": 16152,
      "componentType": 5125,
      "count": 372,
      "type": "SCALAR"
    },
    {
      "bufferView": 2,
      "byteOffset": 28944,
      "componentType": 5126,
      "count": 193,
      "max": [
        20.702205657958984,
        -14.822542190551758,
        15.116874694824219
      ],
      "min": [
        5.259450912475586,
        -30.405261993408203,
        11.895685195922852
      ],
      "type": "VEC3"
    },
    {
      "bufferView": 2,
      "byteOffset": 31260,
      "componentType": 5126,
      "count": 193,
      "max": [
        0.9916896820068359,
        0.9982779026031494,
        0.999997615814209
      ],
      "min": [
        -0.9908113479614258,
        -0.9983943700790405,
        -0.04022553190588951
      ],
      "type": "VEC3"
    },
    {
      "bufferView": 3,
      "byteOffset": 19296,
      "componentType": 5126,
      "count": 193,
      "max": [
        0.9992790222167969,
        0.9955666661262512,
        0.810112714767456,
        1.0
      ],
      "min": [
        -0.9991065263748169,
        -0.995021402835846,
        -0.8092498183250427,
        1.0
      ],
      "type": "VEC4"
    },
    {
      "bufferView": 1,
      "byteOffset": 9648,
      "componentType": 5126,
      "count": 193,
      "max": [
        0.9578810930252075,
        0.6797857880592346
      ],
      "min": [
        0.3265654444694519,
        0.0477256141602993
      ],
      "type": "VEC2"
    },
    {
      "bufferView": 0,
      "byteOffset": 17640,
      "componentType": 5125,
      "count": 732,
      "type": "SCALAR"
    },
    {
      "bufferView": 2,
      "byteOffset": 33576,
      "componentType": 5126,
      "count": 810,
      "max": [
        23.315473556518555,
        49.241233825683594,
        -31.276012420654297
      ],
      "min": [
        -42.640846252441406,
        19.001583099365234,
        -50.9710693359375
      ],
      "type": "VEC3"
    },
    {
      "bufferView": 2,
      "byteOffset": 43296,
      "componentType": 5126,
      "count": 810,
      "max": [
        0.9993869662284851,
        0.997887134552002,
        0.9998354315757751
      ],
      "min": [
        -0.9988110065460205,
        -0.99778813123703,
        -0.9994215369224548
      ],
      "type": "VEC3"
    },
    {
      "bufferView": 3,
      "byteOffset": 22384,
      "componentType": 5126,
      "count": 810,
      "max": [
        0.9988928437232971,
        0.9990361332893372,
        0.9998012185096741,
        1.0
      ],
      "min": [
        -0.9989084601402283,
        -0.9985405206680298,
        -0.9982327222824097,
        1.0
      ],
      "type": "VEC4"
    },
    {
      "bufferView": 1,
      "byteOffset": 11192,
      "componentType": 5126,
      "count": 810,
      "max": [
        0.9866758584976196,
        1.9741942882537842
      ],
      "min": [
        0.9367395639419556,
        1.8551521301269531
      ],
      "type": "VEC2"
    },
    {
      "bufferView": 0,
      "byteOffset": 20568,
      "componentType": 5125,
      "count": 3744,
      "type": "SCALAR"
    },
    {
      "bufferView": 2,
      "byteOffset": 53016,
      "componentType": 5126,
      "count": 24,
      "max": [
        19.831239700317383,
        1.568878173828125,
        17.67986488342285
      ],
      "min": [
        -19.831239700317383,
        -1.568878173828125,
        -17.67985725402832
      ],
      "type": "VEC3"
    },
    {
      "bufferView": 2,
      "byteOffset": 53304,
      "componentType": 5126,
      "count": 24,
      "max": [
        0.05999651923775673,
        -0.9952918887138367,
        0.07612156122922897
      ],
      "min": [
        -0.05999652296304703,
        -0.9972455501556396,
        0.07414773851633072
      ],
      "type": "VEC3"
    },
    {
      "bufferView": 3,
      "byteOffset": 35344,
      "componentType": 5126,
      "count": 24,
      "max": [
        1.0,
        0.05983767658472061,
        0.00016419109306298196,
        1.0
      ],
      "min": [
        -1.0,
        1.1024808372894768e-05,
        -0.004418056923896074,
        -1.0
      ],
      "type": "VEC4"
    },
    {
      "bufferView": 1,
      "byteOffset": 17672,
      "componentType": 5126,
      "count": 24,
      "max": [
        0.724108099937439,
        1.5557914972305298
      ],
      "min": [
        0.6838564872741699,
        0.48378410935401917
      ],
      "type": "VEC2"
    },
    {
      "bufferView": 0,
      "byteOffset": 35544,
      "componentType": 5125,
      "count": 36,
      "type": "SCALAR"
    },
    {
      "bufferView": 2,
      "byteOffset": 53592,
      "componentType": 5126,
      "count": 595,
      "max": [
        28.283340454101563,
        -32.643775939941406,
        11.935234069824219
      ],
      "min": [
        -52.89862823486328,
        -47.55543899536133,
        -38.665687561035156
      ],
      "type": "VEC3"
    },
    {
      "bufferView": 2,
      "byteOffset": 60732,
      "componentType": 5126,
      "count": 595,
      "max": [
        1.0,
        0.9974232316017151,
        1.0
      ],
      "min": [
        -1.0,
        -1.0,
        -1.0
      ],
      "type": "VEC3"
    },
    {
      "bufferView": 3,
      "byteOffset": 35728,
      "componentType": 5126,
      "count": 595,
      "max": [
        1.0,
        1.0,
        0.9994348883628845,
        1.0
      ],
      "min": [
        -1.0,
        -0.31736236810684204,
        -1.0,
        -1.0
      ],
      "type": "VEC4"
    },
    {
      "bufferView": 1,
      "byteOffset": 17864,
      "componentType": 5126,
      "count": 595,
      "max": [
        0.9289324283599854,
        1.9965612888336182
      ],
      "min": [
        0.004117094911634922,
        0.004371827933937311
      ],
      "type": "VEC2"
    },
    {
      "bufferView": 0,
      "byteOffset": 35688,
      "componentType": 5125,
      "count": 1869,
      "type": "SCALAR"
    },
    {
      "bufferView": 2,
      "byteOffset": 67872,
      "componentType": 5126,
      "count": 110,
      "max": [
        28.2833251953125,
        3.2583160400390625,
        11.935237884521484
      ],
      "min": [
        -52.89862823486328,
        -32.64379119873047,
        -38.665687561035156
      ],
      "type": "VEC3"
    },
    {
      "bufferView": 2,
      "byteOffset": 69192,
      "componentType": 5126,
      "count": 110,
      "max": [
        1.0,
        0.9906214475631714,
        1.0
      ],
      "min": [
        -1.0,
        -1.0,
        -0.9899495840072632
      ],
      "type": "VEC3"
    },
    {
      "bufferView": 3,
      "byteOffset": 45248,
      "componentType": 5126,
      "count": 110,
      "max": [
        1.0,
        0.6790934801101685,
        1.0,
        1.0
      ],
      "min": [
        -1.0,
        -0.2037011981010437,
        -2.6795248686539708e-08,
        -1.0
      ],
      "type": "VEC4"
    },
    {
      "bufferView": 1,
      "byteOffset": 22624,
      "componentType": 5126,
      "count": 110,
      "max": [
        0.7488061785697937,
        1.9638707637786865
      ],
      "min": [
        0.004343015141785145,
        0.36455196142196655
      ],
      "type": "VEC2"
    },
    {
      "bufferView": 0,
      "byteOffset": 43164,
      "componentType": 5125,
      "count": 354,
      "type": "SCALAR"
    },
    {
      "bufferView": 2,
      "byteOffset": 70512,
      "componentType": 5126,
      "count": 90,
      "max": [
        23.28333282470703,
        15.635364532470703,
        -10.353286743164063
      ],
      "min": [
        -47.89863586425781,
        -40.60243606567383,
        -42.69503402709961
      ],
      "type": "VEC3"
    },
    {
      "bufferView": 2,
      "byteOffset": 71592,
      "componentType": 5126,
      "count": 90,
      "max": [
        1.0,
        1.0,
        1.0
      ],
      "min": [
        -1.0,
        -1.0,
        -1.0
      ],
      "type": "VEC3"
    },
    {
      "bufferView": 3,
      "byteOffset": 47008,
      "componentType": 5126,
      "count": 90,
      "max": [
        1.0,
        1.0,
        0.7071068286895752,
        1.0
      ],
      "min": [
        -1.0,
        -1.0,
        -0.9358637928962708,
        -1.0
      ],
      "type": "VEC4"
    },
    {
      "bufferView": 1,
      "byteOffset": 23504,
      "componentType": 5126,
      "count": 90,
      "max": [
        0.961356520652771,
        1.777648687362671
      ],
      "min": [
        0.04902961477637291,
        0.048385072499513626
      ],
      "type": "VEC2"
    },
    {
      "bufferView": 0,
      "byteOffset": 44580,
      "componentType": 5125,
      "count": 204,
      "type": "SCALAR"
    },
    {
      "bufferView": 2,
      "byteOffset": 72672,
      "componentType": 5126,
      "count": 56,
      "max": [
        3.6168365478515625,
        3.597576141357422,
        4.137340545654297
      ],
      "min": [
        -3.6168365478515625,
        -3.5975818634033203,
        -4.137325286865234
      ],
      "type": "VEC3"
    },
    {
      "bufferView": 2,
      "byteOffset": 73344,
      "componentType": 5126,
      "count": 56,
      "max": [
        0.9273704886436462,
        0.9260215759277344,
        0.17891180515289307
      ],
      "min": [
        -0.9970483183860779,
        -0.9885666370391846,
        -1.0
      ],
      "type": "VEC3"
    },
    {
      "bufferView": 3,
      "byteOffset": 48448,
      "componentType": 5126,
      "count": 56,
      "max": [
        0.9895716309547424,
        0.9996457099914551,
        0.07260482758283615,
        -1.0
      ],
      "min": [
        -1.0,
        -0.9996275305747986,
        -0.0727897435426712,
        -1.0
      ],
      "type": "VEC4"
    },
    {
      "bufferView": 1,
      "byteOffset": 24224,
      "componentType": 5126,
      "count": 56,
      "max": [
        0.9143720269203186,
        1.4160332679748535
      ],
      "min": [
        0.6826104521751404,
        1.0235085487365723
      ],
      "type": "VEC2"
    },
    {
      "bufferView": 0,
      "byteOffset": 45396,
      "componentType": 5125,
      "count": 156,
      "type": "SCALAR"
    },
    {
      "bufferView": 2,
      "byteOffset": 74016,
      "componentType": 5126,
      "count": 56,
      "max": [
        3.6168365478515625,
        3.5975825786590576,
        4.137340545654297
      ],
      "min": [
        -3.6168363094329834,
        -3.59757661819458,
        -4.137325286865234
      ],
      "type": "VEC3"
    },
    {
      "bufferView": 2,
      "byteOffset": 74688,
      "componentType": 5126,
      "count": 56,
      "max": [
        0.9273704886436462,
        0.9885666370391846,
        0.17891189455986023
      ],
      "min": [
        -0.9970483183860779,
        -0.9260215759277344,
        -1.0
      ],
      "type": "VEC3"
    },
    {
      "bufferView": 3,
      "byteOffset": 49344,
      "componentType": 5126,
      "count": 56,
      "max": [
        0.9895715117454529,
        0.9996274709701538,
        0.07260465621948242,
        1.0
      ],
      "min": [
        -1.0,
        -0.9996457099914551,
        -0.07278967648744583,
        1.0
      ],
      "type": "VEC4"
    },
    {
      "bufferView": 1,
      "byteOffset": 24672,
      "componentType": 5126,
      "count": 56,
      "max": [
        0.9143720269203186,
        1.4160332679748535
      ],
      "min": [
        0.6826104521751404,
        1.0235085487365723
      ],
      "type": "VEC2"
    },
    {
      "bufferView": 0,
      "byteOffset": 46020,
      "componentType": 5125,
      "count": 156,
      "type": "SCALAR"
    },
    {
      "bufferView": 2,
      "byteOffset": 75360,
      "componentType": 5126,
      "count": 56,
      "max": [
        3.6168367862701416,
        3.5975818634033203,
        4.137340545654297
      ],
      "min": [
        -3.6168365478515625,
        -3.597576141357422,
        -4.137325286865234
      ],
      "type": "VEC3"
    },
    {
      "bufferView": 2,
      "byteOffset": 76032,
      "componentType": 5126,
      "count": 56,
      "max": [
        0.9970483183860779,
        0.9885667562484741,
        0.17891180515289307
      ],
      "min": [
        -0.9273704886436462,
        -0.9260215759277344,
        -1.0
      ],
      "type": "VEC3"
    },
    {
      "bufferView": 3,
      "byteOffset": 50240,
      "componentType": 5126,
      "count": 56,
      "max": [
        1.0,
        0.9996275305747986,
        0.07260483503341675,
        -1.0
      ],
      "min": [
        -0.9895716309547424,
        -0.9996457695960999,
        -0.07278972119092941,
        -1.0
      ],
      "type": "VEC4"
    },
    {
      "bufferView": 1,
      "byteOffset": 25120,
      "componentType": 5126,
      "count": 56,
      "max": [
        0.9143720269203186,
        1.4160332679748535
      ],
      "min": [
        0.6826104521751404,
        1.0235085487365723
      ],
      "type": "VEC2"
    },
    {
      "bufferView": 0,
      "byteOffset": 46644,
      "componentType": 5125,
      "count": 156,
      "type": "SCALAR"
    },
    {
      "bufferView": 2,
      "byteOffset": 76704,
      "componentType": 5126,
      "count": 207,
      "max": [
        1.9591255187988281,
        3.311574935913086,
        1.9591236114501953
      ],
      "min": [
        -1.9591255187988281,
        -3.311574935913086,
        -1.9591255187988281
      ],
      "type": "VEC3"
    },
    {
      "bufferView": 2,
      "byteOffset": 79188,
      "componentType": 5126,
      "count": 207,
      "max": [
        1.0,
        1.0,
        1.0
      ],
      "min": [
        -1.0,
        -0.990446150302887,
        -1.0
      ],
      "type": "VEC3"
    },
    {
      "bufferView": 3,
      "byteOffset": 51136,
      "componentType": 5126,
      "count": 207,
      "max": [
        1.0,
        0.8329050540924072,
        1.0,
        1.0
      ],
      "min": [
        -1.0,
        -0.8842733502388,
        -1.0,
        1.0
      ],
      "type": "VEC4"
    },
    {
      "bufferView": 1,
      "byteOffset": 25568,
      "componentType": 5126,
      "count": 207,
      "max": [
        0.986100971698761,
        1.9509880542755127
      ],
      "min": [
        0.8376861810684204,
        1.6107401847839355
      ],
      "type": "VEC2"
    },
    {
      "bufferView": 0,
      "byteOffset": 47268,
      "componentType": 5125,
      "count": 714,
      "type": "SCALAR"
    },
    {
      "bufferView": 2,
      "byteOffset": 81672,
      "componentType": 5126,
      "count": 207,
      "max": [
        1.9591255187988281,
        3.311574935913086,
        1.9591236114501953
      ],
      "min": [
        -1.9591255187988281,
        -3.311574935913086,
        -1.9591255187988281
      ],
      "type": "VEC3"
    },
    {
      "bufferView": 2,
      "byteOffset": 84156,
      "componentType": 5126,
      "count": 207,
      "max": [
        1.0,
        1.0,
        1.0
      ],
      "min": [
        -1.0,
        -0.990446150302887,
        -1.0
      ],
      "type": "VEC3"
    },
    {
      "bufferView": 3,
      "byteOffset": 54448,
      "componentType": 5126,
      "count": 207,
      "max": [
        1.0,
        0.8329050540924072,
        1.0,
        1.0
      ],
      "min": [
        -1.0,
        -0.8842733502388,
        -1.0,
        1.0
      ],
      "type": "VEC4"
    },
    {
      "bufferView": 1,
      "byteOffset": 27224,
      "componentType": 5126,
      "count": 207,
      "max": [
        0.986100971698761,
        1.9509880542755127
      ],
      "min": [
        0.8376861810684204,
        1.6107401847839355
      ],
      "type": "VEC2"
    },
    {
      "bufferView": 0,
      "byteOffset": 50124,
      "componentType": 5125,
      "count": 714,
      "type": "SCALAR"
    },
    {
      "bufferView": 2,
      "byteOffset": 86640,
      "componentType": 5126,
      "count": 178,
      "max": [
        4.692390441894531,
        2.0852890014648438,
        4.607797622680664
      ],
      "min": [
        -4.692390441894531,
        -2.0852890014648438,
        -4.60780143737793
      ],
      "type": "VEC3"
    },
    {
      "bufferView": 2,
      "byteOffset": 88776,
      "componentType": 5126,
      "count": 178,
      "max": [
        1.0,
        0.0,
        1.0
      ],
      "min": [
        -1.0,
        -1.0,
        -1.0
      ],
      "type": "VEC3"
    },
    {
      "bufferView": 3,
      "byteOffset": 57760,
      "componentType": 5126,
      "count": 178,
      "max": [
        0.9848883748054504,
        0.5223152041435242,
        1.0,
        1.0
      ],
      "min": [
        -0.9848882555961609,
        -1.0,
        -1.0,
        1.0
      ],
      "type": "VEC4"
    },
    {
      "bufferView": 1,
      "byteOffset": 28880,
      "componentType": 5126,
      "count": 178,
      "max": [
        0.9925661683082581,
        1.963287353515625
      ],
      "min": [
        0.3179847002029419,
        1.0253610610961914
      ],
      "type": "VEC2"
    },
    {
      "bufferView": 0,
      "byteOffset": 52980,
      "componentType": 5125,
      "count": 636,
      "type": "SCALAR"
    },
    {
      "bufferView": 2,
      "byteOffset": 90912,
      "componentType": 5126,
      "count": 35,
      "max": [
        -43.06258773803711,
        32.41316223144531,
        -48.72308349609375
      ],
      "min": [
        -43.99326705932617,
        30.191482543945313,
        -49.65376281738281
      ],
      "type": "VEC3"
    },
    {
      "bufferView": 2,
      "byteOffset": 91332,
      "componentType": 5126,
      "count": 35,
      "max": [
        1.0,
        0.0,
        1.0
      ],
      "min": [
        -1.0,
        -1.0,
        -1.0
      ],
      "type": "VEC3"
    },
    {
      "bufferView": 3,
      "byteOffset": 60608,
      "componentType": 5126,
      "count": 35,
      "max": [
        0.9998753070831299,
        1.0,
        0.3240482211112976,
        1.0
      ],
      "min": [
        -0.1865653544664383,
        -0.9822887778282166,
        -0.3517810106277466,
        1.0
      ],
      "type": "VEC4"
    },
    {
      "bufferView": 1,
      "byteOffset": 30304,
      "componentType": 5126,
      "count": 35,
      "max": [
        0.9283405542373657,
        1.0982493162155151
      ],
      "min": [
        0.7788341641426086,
        1.0243439674377441
      ],
      "type": "VEC2"
    },
    {
      "bufferView": 0,
      "byteOffset": 55524,
      "componentType": 5125,
      "count": 120,
      "type": "SCALAR"
    },
    {
      "bufferView": 2,
      "byteOffset": 91752,
      "componentType": 5126,
      "count": 132,
      "max": [
        13.948768615722656,
        -46.05060577392578,
        -31.641489028930664
      ],
      "min": [
        10.481369018554688,
        -49.24123764038086,
        -35.0462646484375
      ],
      "type": "VEC3"
    },
    {
      "bufferView": 2,
      "byteOffset": 93336,
      "componentType": 5126,
      "count": 132,
      "max": [
        1.0,
        0.0,
        0.9848886132240295
      ],
      "min": [
        -1.0,
        -1.0,
        -0.9848894476890564
      ],
      "type": "VEC3"
    },
    {
      "bufferView": 3,
      "byteOffset": 61168,
      "componentType": 5126,
      "count": 132,
      "max": [
        1.0,
        0.08615802973508835,
        1.0,
        1.0
      ],
      "min": [
        -0.9936351180076599,
        -0.08616824448108673,
        -1.0,
        1.0
      ],
      "type": "VEC4"
    },
    {
      "bufferView": 1,
      "byteOffset": 30584,
      "componentType": 5126,
      "count": 132,
      "max": [
        0.9960530996322632,
        1.9864256381988525
      ],
      "min": [
        0.5296692848205566,
        1.756038784980774
      ],
      "type": "VEC2"
    },
    {
      "bufferView": 0,
      "byteOffset": 56004,
      "componentType": 5125,
      "count": 372,
      "type": "SCALAR"
    },
    {
      "bufferView": 2,
      "byteOffset": 94920,
      "componentType": 5126,
      "count": 168,
      "max": [
        14.24203872680664,
        -21.32428741455078,
        52.39613342285156
      ],
      "min": [
        11.63314437866211,
        -23.933483123779297,
        13.827913284301758
      ],
      "type": "VEC3"
    },
    {
      "bufferView": 2,
      "byteOffset": 96936,
      "componentType": 5126,
      "count": 168,
      "max": [
        0.9998835325241089,
        1.0,
        0.9998834729194641
      ],
      "min": [
        -0.999973475933075,
        -1.0,
        -0.9998835325241089
      ],
      "type": "VEC3"
    },
    {
      "bufferView": 3,
      "byteOffset": 63280,
      "componentType": 5126,
      "count": 168,
      "max": [
        0.998823344707489,
        1.0,
        0.9998733401298523,
        1.0
      ],
      "min": [
        -0.9988210797309875,
        -1.0,
        -0.9985007643699646,
        1.0
      ],
      "type": "VEC4"
    },
    {
      "bufferView": 1,
      "byteOffset": 31640,
      "componentType": 5126,
      "count": 168,
      "max": [
        0.9915281534194946,
        1.1902110576629639
      ],
      "min": [
        0.7026152610778809,
        0.04788358137011528
      ],
      "type": "VEC2"
    },
    {
      "bufferView": 0,
      "byteOffset": 57492,
      "componentType": 5125,
      "count": 630,
      "type": "SCALAR"
    },
    {
      "bufferView": 2,
      "byteOffset": 98952,
      "componentType": 5126,
      "count": 168,
      "max": [
        14.24203872680664,
        -21.32428741455078,
        52.39613342285156
      ],
      "min": [
        11.63314437866211,
        -23.933483123779297,
        13.827913284301758
      ],
      "type": "VEC3"
    },
    {
      "bufferView": 2,
      "byteOffset": 100968,
      "componentType": 5126,
      "count": 168,
      "max": [
        0.9998835325241089,
        1.0,
        0.9998834729194641
      ],
      "min": [
        -0.999973475933075,
        -1.0,
        -0.9998835325241089
      ],
      "type": "VEC3"
    },
    {
      "bufferView": 3,
      "byteOffset": 65968,
      "componentType": 5126,
      "count": 168,
      "max": [
        0.998823344707489,
        1.0,
        0.9998733401298523,
        1.0
      ],
      "min": [
        -0.9988210797309875,
        -1.0,
        -0.9985007643699646,
        1.0
      ],
      "type": "VEC4"
    },
    {
      "bufferView": 1,
      "byteOffset": 32984,
      "componentType": 5126,
      "count": 168,
      "max": [
        0.9915281534194946,
        1.1902110576629639
      ],
      "min": [
        0.7026152610778809,
        0.04788358137011528
      ],
      "type": "VEC2"
    },
    {
      "bufferView": 0,
      "byteOffset": 60012,
      "componentType": 5125,
      "count": 630,
      "type": "SCALAR"
    },
    {
      "bufferView": 2,
      "byteOffset": 102984,
      "componentType": 5126,
      "count": 178,
      "max": [
        19.750171661376953,
        4.169528961181641,
        17.67986297607422
      ],
      "min": [
        -19.912307739257813,
        -4.169525146484375,
        -17.679859161376953
      ],
      "type": "VEC3"
    },
    {
      "bufferView": 2,
      "byteOffset": 105120,
      "componentType": 5126,
      "count": 178,
      "max": [
        0.9861124157905579,
        0.9969190955162048,
        0.999656081199646
      ],
      "min": [
        -0.9861121773719788,
        -0.9961780309677124,
        -0.9958157539367676
      ],
      "type": "VEC3"
    },
    {
      "bufferView": 3,
      "byteOffset": 68656,
      "componentType": 5126,
      "count": 178,
      "max": [
        0.9998071789741516,
        0.9210033416748047,
        0.9972456693649292,
        1.0
      ],
      "min": [
        -0.9998071789741516,
        -0.9428554773330688,
        -0.9998360276222229,
        -1.0
      ],
      "type": "VEC4"
    },
    {
      "bufferView": 1,
      "byteOffset": 34328,
      "componentType": 5126,
      "count": 178,
      "max": [
        0.9928763508796692,
        1.9438707828521729
      ],
      "min": [
        0.31797757744789124,
        0.2630484998226166
      ],
      "type": "VEC2"
    },
    {
      "bufferView": 0,
      "byteOffset": 62532,
      "componentType": 5125,
      "count": 708,
      "type": "SCALAR"
    }
  ],
  "asset": {
    "extras": {
      "author": "Denis Temirgalin (https://sketchfab.com/Temirgalin)",
      "license": "CC-BY-4.0 (http://creativecommons.org/licenses/by/4.0/)",
      "source": "https://sketchfab.com/3d-models/cartoon-tv-92ac67af3ba248cb8176765cebd3ac5b",
      "title": "Cartoon TV"
    },
    "generator": "Sketchfab-12.65.0",
    "version": "2.0"
  },
  "bufferViews": [
    {
      "buffer": 0,
      "byteLength": 65364,
      "name": "floatBufferViews",
      "target": 34963
    },
    {
      "buffer": 0,
      "byteLength": 35752,
      "byteOffset": 65364,
      "byteStride": 8,
      "name": "floatBufferViews",
      "target": 34962
    },
    {
      "buffer": 0,
      "byteLength": 107256,
      "byteOffset": 101116,
      "byteStride": 12,
      "name": "floatBufferViews",
      "target": 34962
    },
    {
      "buffer": 0,
      "byteLength": 71504,
      "byteOffset": 208372,
      "byteStride": 16,
      "name": "floatBufferViews",
      "target": 34962
    }
  ],
  "buffers": [
    {
      "byteLength": 279876,
      "uri": "scene.bin"
    }
  ],
  "images": [
    {
      "uri": "textures/main_baseColor.png"
    },
    {
      "uri": "textures/main_metallicRoughness.png"
    },
    {
      "uri": "textures/main_emissive.png"
    },
    {
      "uri": "textures/main_normal.png"
    },
    {
      "uri": "textures/glass_metallicRoughness.png"
    }
  ],
  "materials": [
    {
      "doubleSided": true,
      "emissiveFactor": [
        1.0,
        1.0,
        1.0
      ],
      "emissiveTexture": {
        "index": 2
      },
      "name": "main",
      "normalTexture": {
        "index": 3
      },
      "occlusionTexture": {
        "index": 1
      },
      "pbrMetallicRoughness": {
        "baseColorTexture": {
          "index": 0
        },
        "metallicRoughnessTexture": {
          "index": 1
        }
      }
    },
    {
      "alphaMode": "BLEND",
      "doubleSided": true,
      "emissiveFactor": [
        1.0,
        1.0,
        1.0
      ],
      "emissiveTexture": {
        "index": 2
      },
      "name": "glass",
      "normalTexture": {
        "index": 3
      },
      "occlusionTexture": {
        "index": 4
      },
      "pbrMetallicRoughness": {
        "baseColorFactor": [
          1.0,
          1.0,
          1.0,
          0.5
        ],
        "baseColorTexture": {
          "index": 0
        },
        "metallicRoughnessTexture": {
          "index": 4
        }
      }
    }
  ],
  "meshes": [
    {
      "name": "legs_low001_main_0",
      "primitives": [
        {
          "attributes": {
            "NORMAL": 1,
            "POSITION": 0,
            "TANGENT": 2,
            "TEXCOORD_0": 3
          },
          "indices": 4,
          "material": 0,
          "mode": 4
        }
      ]
    },
    {
      "name": "power_button_low001_main_0",
      "primitives": [
        {
          "attributes": {
            "NORMAL": 6,
            "POSITION": 5,
            "TANGENT": 7,
            "TEXCOORD_0": 8
          },
          "indices": 9,
          "material": 0,
          "mode": 4
        }
      ]
    },
    {
      "name": "plugin_nipel_low001_main_0",
      "primitives": [
        {
          "attributes": {
            "NORMAL": 11,
            "POSITION": 10,
            "TANGENT": 12,
            "TEXCOORD_0": 13
          },
          "indices": 14,
          "material": 0,
          "mode": 4
        }
      ]
    },
    {
      "name": "plugin_base_low001_main_0",
      "primitives": [
        {
          "attributes": {
            "NORMAL": 16,
            "POSITION": 15,
            "TANGENT": 17,
            "TEXCOORD_0": 18
          },
          "indices": 19,
          "material": 0,
          "mode": 4
        }
      ]
    },
    {
      "name": "wire_left_low001_main_0",
      "primitives": [
        {
          "attributes": {
            "NORMAL": 21,
            "POSITION": 20,
            "TANGENT": 22,
            "TEXCOORD_0": 23
          },
          "indices": 24,
          "material": 0,
          "mode": 4
        }
      ]
    },
    {
      "name": "wire_holder_low001_main_0",
      "primitives": [
        {
          "attributes": {
            "NORMAL": 26,
            "POSITION": 25,
            "TANGENT": 27,
            "TEXCOORD_0": 28
          },
          "indices": 29,
          "material": 0,
          "mode": 4
        }
      ]
    },
    {
      "name": "top_regulator_low001_main_0",
      "primitives": [
        {
          "attributes": {
            "NORMAL": 31,
            "POSITION": 30,
            "TANGENT": 32,
            "TEXCOORD_0": 33
          },
          "indices": 34,
          "material": 0,
          "mode": 4
        }
      ]
    },
    {
      "name": "bottom_regulator_low001_main_0",
      "primitives": [
        {
          "attributes": {
            "NORMAL": 36,
            "POSITION": 35,
            "TANGENT": 37,
            "TEXCOORD_0": 38
          },
          "indices": 39,
          "material": 0,
          "mode": 4
        }
      ]
    },
    {
      "name": "antena_base_low001_main_0",
      "primitives": [
        {
          "attributes": {
            "NORMAL": 41,
            "POSITION": 40,
            "TANGENT": 42,
            "TEXCOORD_0": 43
          },
          "indices": 44,
          "material": 0,
          "mode": 4
        }
      ]
    },
    {
      "name": "wire_right_low001_main_0",
      "primitives": [
        {
          "attributes": {
            "NORMAL": 46,
            "POSITION": 45,
            "TANGENT": 47,
            "TEXCOORD_0": 48
          },
          "indices": 49,
          "material": 0,
          "mode": 4
        }
      ]
    },
    {
      "name": "screen_emision_low002_main_0",
      "primitives": [
        {
          "attributes": {
            "NORMAL": 51,
            "POSITION": 50,
            "TANGENT": 52,
            "TEXCOORD_0": 53
          },
          "indices": 54,
          "material": 0,
          "mode": 4
        }
      ]
    },
    {
      "name": "front_body_low001_main_0",
      "primitives": [
        {
          "attributes": {
            "NORMAL": 56,
            "POSITION": 55,
            "TANGENT": 57,
            "TEXCOORD_0": 58
          },
          "indices": 59,
          "material": 0,
          "mode": 4
        }
      ]
    },
    {
      "name": "middel_body_low001_main_0",
      "primitives": [
        {
          "attributes": {
            "NORMAL": 61,
            "POSITION": 60,
            "TANGENT": 62,
            "TEXCOORD_0": 63
          },
          "indices": 64,
          "material": 0,
          "mode": 4
        }
      ]
    },
    {
      "name": "rear_body_low001_main_0",
      "primitives": [
        {
          "attributes": {
            "NORMAL": 66,
            "POSITION": 65,
            "TANGENT": 67,
            "TEXCOORD_0": 68
          },
          "indices": 69,
          "material": 0,
          "mode": 4
        }
      ]
    },
    {
      "name": "legs_low002_main_0",
      "primitives": [
        {
          "attributes": {
            "NORMAL": 71,
            "POSITION": 70,
            "TANGENT": 72,
            "TEXCOORD_0": 73
          },
          "indices": 74,
          "material": 0,
          "mode": 4
        }
      ]
    },
    {
      "name": "legs_low003_main_0",
      "primitives": [
        {
          "attributes": {
            "NORMAL": 76,
            "POSITION": 75,
            "TANGENT": 77,
            "TEXCOORD_0": 78
          },
          "indices": 79,
          "material": 0,
          "mode": 4
        }
      ]
    },
    {
      "name": "legs_low004_main_0",
      "primitives": [
        {
          "attributes": {
            "NORMAL": 81,
            "POSITION": 80,
            "TANGENT": 82,
            "TEXCOORD_0": 83
          },
          "indices": 84,
          "material": 0,
          "mode": 4
        }
      ]
    },
    {
      "name": "wire_holder_low002_main_0",
      "primitives": [
        {
          "attributes": {
            "NORMAL": 86,
            "POSITION": 85,
            "TANGENT": 87,
            "TEXCOORD_0": 88
          },
          "indices": 89,
          "material": 0,
          "mode": 4
        }
      ]
    },
    {
      "name": "wire_holder_low003_main_0",
      "primitives": [
        {
          "attributes": {
            "NORMAL": 91,
            "POSITION": 90,
            "TANGENT": 92,
            "TEXCOORD_0": 93
          },
          "indices": 94,
          "material": 0,
          "mode": 4
        }
      ]
    },
    {
      "name": "top_regulator_low002_main_0",
      "primitives": [
        {
          "attributes": {
            "NORMAL": 96,
            "POSITION": 95,
            "TANGENT": 97,
            "TEXCOORD_0": 98
          },
          "indices": 99,
          "material": 0,
          "mode": 4
        }
      ]
    },
    {
      "name": "plugin_nipel_low002_main_0",
      "primitives": [
        {
          "attributes": {
            "NORMAL": 101,
            "POSITION": 100,
            "TANGENT": 102,
            "TEXCOORD_0": 103
          },
          "indices": 104,
          "material": 0,
          "mode": 4
        }
      ]
    },
    {
      "name": "bottom_regulator_low002_main_0",
      "primitives": [
        {
          "attributes": {
            "NORMAL": 106,
            "POSITION": 105,
            "TANGENT": 107,
            "TEXCOORD_0": 108
          },
          "indices": 109,
          "material": 0,
          "mode": 4
        }
      ]
    },
    {
      "name": "antena_middel_low002_main_0",
      "primitives": [
        {
          "attributes": {
            "NORMAL": 111,
            "POSITION": 110,
            "TANGENT": 112,
            "TEXCOORD_0": 113
          },
          "indices": 114,
          "material": 0,
          "mode": 4
        }
      ]
    },
    {
      "name": "antena_middel_low003_main_0",
      "primitives": [
        {
          "attributes": {
            "NORMAL": 116,
            "POSITION": 115,
            "TANGENT": 117,
            "TEXCOORD_0": 118
          },
          "indices": 119,
          "material": 0,
          "mode": 4
        }
      ]
    },
    {
      "name": "screen_low001_glass_0",
      "primitives": [
        {
          "attributes": {
            "NORMAL": 121,
            "POSITION": 120,
            "TANGENT": 122,
            "TEXCOORD_0": 123
          },
          "indices": 124,
          "material": 1,
          "mode": 4
        }
      ]
    }
  ],
  "nodes": [
    {
      "children": [
        1
      ],
      "matrix": [
        1.0,
        0.0,
        0.0,
        0.0,
        0.0,
        2.220446049250313e-16,
        -1.0,
        0.0,
        0.0,
        1.0,
        2.220446049250313e-16,
        0.0,
        -0.2143317312002182,
        -0.2119084745645523,
        -4.705313351495206e-17,
        1.0
      ],
      "name": "Sketchfab_model"
    },
    {
      "children": [
        2
      ],
      "matrix": [
        1.0,
        0.0,
        0.0,
        0.0,
        0.0,
        0.0,
        1.0,
        0.0,
        0.0,
        -1.0,
        0.0,
        0.0,
        0.0,
        0.0,
        0.0,
        1.0
      ],
      "name": "cc8384c11d4647f6854d2898b56325b8.fbx"
    },
    {
      "children": [
        3,
        6,
        9,
        12,
        15,
        18,
        21,
        24,
        27,
        30,
        33,
        35,
        38,
        41,
        44,
        46,
        48,
        50,
        52,
        54,
        56,
        59,
        62,
        65,
        68
      ],
      "name": "RootNode"
    },
    {
      "children": [
        4
      ],
      "matrix": [
        1.0,
        0.0,
        0.0,
        0.0,
        0.0,
        2.220446049250313e-16,
        -1.0,
        0.0,
        0.0,
        1.0,
        2.220446049250313e-16,
        0.0,
        30.815719604492188,
        -8.166667938232422,
        -0.32564544677734375,
        1.0
      ],
      "name": "legs_low001"
    },
    {
      "children": [
        5
      ],
      "matrix": [
        1.0,
        0.0,
        -0.0,
        0.0,
        0.0,
        1.0,
        0.0,
        0.0,
        0.0,
        0.0,
        1.0,
        0.0,
        -12.880279541015625,
        31.545316696166992,
        46.83235549926758,
        1.0
      ],
      "name": "Object_4"
    },
    {
      "mesh": 0,
      "name": "legs_low001_main_0"
    },
    {
      "children": [
        7
      ],
      "matrix": [
        1.0,
        0.0,
        0.0,
        0.0,
        0.0,
        2.220446049250313e-16,
        -1.0,
        0.0,
        0.0,
        1.0,
        2.220446049250313e-16,
        0.0,
        44.32844543457031,
        4.201988220214844,
        3.5714378356933594,
        1.0
      ],
      "name": "power_button_low001"
    },
    {
      "children": [
        8
      ],
      "matrix": [
        1.0,
        0.0,
        -0.0,
        0.0,
        0.0,
        1.0,
        0.0,
        0.0,
        0.0,
        0.0,
        1.0,
        0.0,
        -26.39300537109375,
        35.44239807128906,
        34.46369934082031,
        1.0
      ],
      "name": "Object_7"
    },
    {
      "mesh": 1,
      "name": "power_button_low001_main_0"
    },
    {
      "children": [
        10
      ],
      "matrix": [
        0.5838739937588404,
        -0.08242525252933525,
        0.8076492042697603,
        0.0,
        0.7997198169241055,
        -0.11289575535199359,
        -0.5896632622458162,
        0.0,
        0.13978331027335394,
        0.9901821176778434,
        2.1230689362106148e-07,
        0.0,
        -31.742475509643555,
        -9.20962142944336,
        -65.00101470947266,
        1.0
      ],
      "name": "plugin_nipel_low001"
    },
    {
      "children": [
        11
      ],
      "matrix": [
        1.0,
        0.0,
        -0.0,
        0.0,
        0.0,
        1.0,
        0.0,
        0.0,
        0.0,
        0.0,
        1.0,
        0.0,
        43.52792739868164,
        -31.302324295043945,
        49.18842315673828,
        1.0
      ],
      "name": "Object_10"
    },
    {
      "mesh": 2,
      "name": "plugin_nipel_low001_main_0"
    },
    {
      "children": [
        13
      ],
      "matrix": [
        0.5838739937588404,
        -0.08242525252933525,
        0.8076492042697603,
        0.0,
        0.7997198169241055,
        -0.11289575535199359,
        -0.5896632622458162,
        0.0,
        0.13978331027335394,
        0.9901821176778434,
        2.1230689362106148e-07,
        0.0,
        -29.6153621673584,
        -9.509905815124512,
        -65.07621002197266,
        1.0
      ],
      "name": "plugin_base_low001"
    },
    {
      "children": [
        14
      ],
      "matrix": [
        1.0,
        0.0,
        -0.0,
        0.0,
        0.0,
        1.0,
        0.0,
        0.0,
        0.0,
        0.0,
        1.0,
        0.0,
        42.321937561035156,
        -33.08165740966797,
        49.18842315673828,
        1.0
      ],
      "name": "Object_13"
    },
    {
      "mesh": 3,
      "name": "plugin_base_low001_main_0"
    },
    {
      "children": [
        16
      ],
      "matrix": [
        1.0,
        0.0,
        0.0,
        0.0,
        0.0,
        2.220446049250313e-16,
        -1.0,
        0.0,
        0.0,
        1.0,
        2.220446049250313e-16,
        0.0,
        32.51423263549805,
        28.326011657714844,
        -37.31360626220703,
        1.0
      ],
      "name": "wire_left_low001"
    },
    {
      "children": [
        17
      ],
      "matrix": [
        1.0,
        0.0,
        -0.0,
        0.0,
        0.0,
        1.0,
        0.0,
        0.0,
        0.0,
        0.0,
        1.0,
        0.0,
        -14.578792572021484,
        -5.442644119262695,
        10.339675903320313,
        1.0
      ],
      "name": "Object_16"
    },
    {
      "mesh": 4,
      "name": "wire_left_low001_main_0"
    },
    {
      "children": [
        19
      ],
      "matrix": [
        1.0,
        0.0,
        0.0,
        0.0,
        0.0,
        2.220446049250313e-16,
        -1.0,
        0.0,
        0.0,
        1.0,
        2.220446049250313e-16,
        0.0,
        17.189184188842773,
        6.399791717529297,
        -48.33112335205078,
        1.0
      ],
      "name": "wire_holder_low001"
    },
    {
      "children": [
        20
      ],
      "matrix": [
        1.0,
        0.0,
        -0.0,
        0.0,
        0.0,
        1.0,
        0.0,
        0.0,
        0.0,
        0.0,
        1.0,
        0.0,
        0.7462558746337891,
        -16.460161209106445,
        32.26589584350586,
        1.0
      ],
      "name": "Object_19"
    },
    {
      "mesh": 5,
      "name": "wire_holder_low001_main_0"
    },
    {
      "children": [
        22
      ],
      "matrix": [
        0.9238795200293247,
        -0.3826834624992103,
        0.0,
        0.0,
        0.0,
        1.1102230246251565e-16,
        -0.9999999999999999,
        0.0,
        0.3826834624992103,
        0.9238795200293247,
        1.1102230246251565e-16,
        0.0,
        33.41954803466797,
        38.758487701416016,
        12.49991226196289,
        1.0
      ],
      "name": "top_regulator_low001"
    },
    {
      "children": [
        23
      ],
      "matrix": [
        1.0,
        0.0,
        -0.0,
        0.0,
        0.0,
        1.0,
        0.0,
        0.0,
        0.0,
        0.0,
        1.0,
        0.0,
        -15.107597351074219,
        44.234275817871094,
        -0.16503524780273438,
        1.0
      ],
      "name": "Object_22"
    },
    {
      "mesh": 6,
      "name": "top_regulator_low001_main_0"
    },
    {
      "children": [
        25
      ],
      "matrix": [
        1.0,
        0.0,
        0.0,
        0.0,
        0.0,
        2.220446049250313e-16,
        -1.0,
        0.0,
        0.0,
        1.0,
        2.220446049250313e-16,
        0.0,
        30.580799102783203,
        5.321811676025391,
        15.774959564208984,
        1.0
      ],
      "name": "bottom_regulator_low001"
    },
    {
      "children": [
        26
      ],
      "matrix": [
        1.0,
        0.0,
        -0.0,
        0.0,
        0.0,
        1.0,
        0.0,
        0.0,
        0.0,
        0.0,
        1.0,
        0.0,
        -12.215068817138672,
        47.64591979980469,
        33.343875885009766,
        1.0
      ],
      "name": "Object_25"
    },
    {
      "mesh": 7,
      "name": "bottom_regulator_low001_main_0"
    },
    {
      "children": [
        28
      ],
      "matrix": [
        1.0,
        0.0,
        0.0,
        0.0,
        0.0,
        2.220446049250313e-16,
        -1.0,
        0.0,
        0.0,
        1.0,
        2.220446049250313e-16,
        0.0,
        30.91626739501953,
        52.171966552734375,
        -9.257061004638672,
        1.0
      ],
      "name": "antena_base_low001"
    },
    {
      "children": [
        29
      ],
      "matrix": [
        1.0,
        0.0,
        -0.0,
        0.0,
        0.0,
        1.0,
        0.0,
        0.0,
        0.0,
        0.0,
        1.0,
        0.0,
        -12.980827331542969,
        22.613901138305664,
        -13.506278991699219,
        1.0
      ],
      "name": "Object_28"
    },
    {
      "mesh": 8,
      "name": "antena_base_low001_main_0"
    },
    {
      "children": [
        31
      ],
      "matrix": [
        1.0,
        0.0,
        0.0,
        0.0,
        0.0,
        2.220446049250313e-16,
        -1.0,
        0.0,
        0.0,
        1.0,
        2.220446049250313e-16,
        0.0,
        8.272754669189453,
        -2.457855224609375,
        -65.99237060546875,
        1.0
      ],
      "name": "wire_right_low001"
    },
    {
      "children": [
        32
      ],
      "matrix": [
        1.0,
        0.0,
        -0.0,
        0.0,
        0.0,
        1.0,
        0.0,
        0.0,
        0.0,
        0.0,
        1.0,
        0.0,
        9.66268539428711,
        -34.12140655517578,
        41.12354278564453,
        1.0
      ],
      "name": "Object_31"
    },
    {
      "mesh": 9,
      "name": "wire_right_low001_main_0"
    },
    {
      "children": [
        34
      ],
      "matrix": [
        1.038699984550476,
        0.0,
        0.0,
        0.0,
        0.0,
        2.306377277051466e-16,
        -1.038699984550476,
        0.0,
        0.0,
        1.038699984550476,
        2.306377277051466e-16,
        0.0,
        -3.6064014434814453,
        25.300472259521484,
        7.699241638183594,
        1.0
      ],
      "name": "screen_emision_low002"
    },
    {
      "mesh": 10,
      "name": "screen_emision_low002_main_0"
    },
    {
      "children": [
        36
      ],
      "matrix": [
        1.0,
        0.0,
        0.0,
        0.0,
        0.0,
        2.220446049250313e-16,
        -1.0,
        0.0,
        0.0,
        1.0,
        2.220446049250313e-16,
        0.0,
        5.627796173095703,
        25.300460815429688,
        8.228647232055664,
        1.0
      ],
      "name": "front_body_low001"
    },
    {
      "children": [
        37
      ],
      "matrix": [
        1.0,
        0.0,
        -0.0,
        0.0,
        0.0,
        1.0,
        0.0,
        0.0,
        0.0,
        0.0,
        1.0,
        0.0,
        12.30764389038086,
        40.099609375,
        13.365226745605469,
        1.0
      ],
      "name": "Object_36"
    },
    {
      "mesh": 11,
      "name": "front_body_low001_main_0"
    },
    {
      "children": [
        39
      ],
      "matrix": [
        1.0,
        0.0,
        0.0,
        0.0,
        0.0,
        2.220446049250313e-16,
        -1.0,
        0.0,
        0.0,
        1.0,
        2.220446049250313e-16,
        0.0,
        5.627788543701172,
        25.30046272277832,
        -17.178226470947266,
        1.0
      ],
      "name": "middel_body_low001"
    },
    {
      "children": [
        40
      ],
      "matrix": [
        1.0,
        0.0,
        -0.0,
        0.0,
        0.0,
        1.0,
        0.0,
        0.0,
        0.0,
        0.0,
        1.0,
        0.0,
        12.30765151977539,
        14.69273567199707,
        13.365224838256836,
        1.0
      ],
      "name": "Object_39"
    },
    {
      "mesh": 12,
      "name": "middel_body_low001_main_0"
    },
    {
      "children": [
        42
      ],
      "matrix": [
        1.0,
        0.0,
        0.0,
        0.0,
        0.0,
        2.220446049250313e-16,
        -1.0,
        0.0,
        0.0,
        1.0,
        2.220446049250313e-16,
        0.0,
        5.627788543701172,
        12.14152717590332,
        -19.38742446899414,
        1.0
      ],
      "name": "rear_body_low001"
    },
    {
      "children": [
        43
      ],
      "matrix": [
        1.0,
        0.0,
        -0.0,
        0.0,
        0.0,
        1.0,
        0.0,
        0.0,
        0.0,
        0.0,
        1.0,
        0.0,
        12.30765151977539,
        12.483537673950195,
        26.524160385131836,
        1.0
      ],
      "name": "Object_42"
    },
    {
      "mesh": 13,
      "name": "rear_body_low001_main_0"
    },
    {
      "children": [
        45
      ],
      "matrix": [
        1.0,
        0.0,
        0.0,
        0.0,
        0.0,
        2.220446049250313e-16,
        -1.0,
        0.0,
        0.0,
        1.0,
        2.220446049250313e-16,
        0.0,
        -19.560138702392578,
        -8.166669845581055,
        -0.325653076171875,
        1.0
      ],
      "name": "legs_low002"
    },
    {
      "mesh": 14,
      "name": "legs_low002_main_0"
    },
    {
      "children": [
        47
      ],
      "matrix": [
        1.0,
        0.0,
        0.0,
        0.0,
        0.0,
        2.220446049250313e-16,
        -1.0,
        0.0,
        0.0,
        1.0,
        2.220446049250313e-16,
        0.0,
        -19.560134887695313,
        -8.166664123535156,
        -38.59563446044922,
        1.0
      ],
      "name": "legs_low003"
    },
    {
      "mesh": 15,
      "name": "legs_low003_main_0"
    },
    {
      "children": [
        49
      ],
      "matrix": [
        1.0,
        0.0,
        0.0,
        0.0,
        0.0,
        2.220446049250313e-16,
        -1.0,
        0.0,
        0.0,
        1.0,
        2.220446049250313e-16,
        0.0,
        30.81572723388672,
        -8.166664123535156,
        -38.59562683105469,
        1.0
      ],
      "name": "legs_low004"
    },
    {
      "mesh": 16,
      "name": "legs_low004_main_0"
    },
    {
      "children": [
        51
      ],
      "matrix": [
        1.0,
        0.0,
        0.0,
        0.0,
        0.0,
        2.220446049250313e-16,
        -1.0,
        0.0,
        0.0,
        1.0,
        2.220446049250313e-16,
        0.0,
        24.36381721496582,
        6.563366889953613,
        -48.33112335205078,
        1.0
      ],
      "name": "wire_holder_low002"
    },
    {
      "mesh": 17,
      "name": "wire_holder_low002_main_0"
    },
    {
      "children": [
        53
      ],
      "matrix": [
        0.5838739937588404,
        -0.08242525252933525,
        0.8076492042697603,
        0.0,
        0.7997198169241055,
        -0.11289575535199359,
        -0.5896632622458162,
        0.0,
        0.13978331027335394,
        0.9901821176778434,
        2.1230689362106148e-07,
        0.0,
        -26.327255249023438,
        -9.974084854125977,
        -67.50064849853516,
        1.0
      ],
      "name": "wire_holder_low003"
    },
    {
      "mesh": 18,
      "name": "wire_holder_low003_main_0"
    },
    {
      "children": [
        55
      ],
      "matrix": [
        0.7071067811865477,
        0.7071067811865475,
        0.0,
        0.0,
        0.0,
        0.0,
        -1.0,
        0.0,
        -0.7071067811865475,
        0.7071067811865477,
        0.0,
        0.0,
        33.41954803466797,
        27.99435806274414,
        13.27530288696289,
        1.0
      ],
      "name": "top_regulator_low002"
    },
    {
      "mesh": 19,
      "name": "top_regulator_low002_main_0"
    },
    {
      "children": [
        57
      ],
      "matrix": [
        0.5838739937588404,
        -0.08242525252933525,
        0.8076492042697603,
        0.0,
        0.7997198169241055,
        -0.11289575535199359,
        -0.5896632622458162,
        0.0,
        0.13978331027335394,
        0.9901821176778434,
        2.1230689362106148e-07,
        0.0,
        -30.476119995117188,
        -9.388392448425293,
        -63.24931716918945,
        1.0
      ],
      "name": "plugin_nipel_low002"
    },
    {
      "children": [
        58
      ],
      "matrix": [
        1.0,
        0.0,
        -0.0,
        0.0,
        0.0,
        1.0,
        0.0,
        0.0,
        0.0,
        0.0,
        1.0,
        0.0,
        43.52792739868164,
        -31.302324295043945,
        49.18842315673828,
        1.0
      ],
      "name": "Object_57"
    },
    {
      "mesh": 20,
      "name": "plugin_nipel_low002_main_0"
    },
    {
      "children": [
        60
      ],
      "matrix": [
        1.0,
        0.0,
        0.0,
        0.0,
        0.0,
        2.220446049250313e-16,
        -1.0,
        0.0,
        0.0,
        1.0,
        2.220446049250313e-16,
        0.0,
        35.76698684692383,
        5.321811676025391,
        15.774959564208984,
        1.0
      ],
      "name": "bottom_regulator_low002"
    },
    {
      "children": [
        61
      ],
      "matrix": [
        1.0,
        0.0,
        -0.0,
        0.0,
        0.0,
        1.0,
        0.0,
        0.0,
        0.0,
        0.0,
        1.0,
        0.0,
        -12.215068817138672,
        47.64591979980469,
        33.343875885009766,
        1.0
      ],
      "name": "Object_60"
    },
    {
      "mesh": 21,
      "name": "bottom_regulator_low002_main_0"
    },
    {
      "children": [
        63
      ],
      "matrix": [
        0.8535533659915555,
        -0.38268346098853734,
        -0.353553419005276,
        0.0,
        -0.3826834680290272,
        0.0,
        -0.9238795177387995,
        0.0,
        0.3535534113847046,
        0.9238795206550661,
        -0.1464466340084445,
        0.0,
        32.08877944946289,
        50.75140380859375,
        -9.745656967163086,
        1.0
      ],
      "name": "antena_middel_low002"
    },
    {
      "children": [
        64
      ],
      "matrix": [
        0.9238794942932461,
        -0.3826835246315887,
        0.0,
        0.0,
        0.3826835246315887,
        0.9238794942932461,
        0.0,
        0.0,
        -0.0,
        0.0,
        1.0,
        0.0,
        -3.2930755615234375,
        25.857364654541016,
        -13.827903747558594,
        1.0
      ],
      "name": "Object_63"
    },
    {
      "mesh": 22,
      "name": "antena_middel_low002_main_0"
    },
    {
      "children": [
        66
      ],
      "matrix": [
        0.8535533659915556,
        0.38268346098853734,
        -0.3535534190052758,
        0.0,
        -0.3826834680290272,
        3.3306690738754696e-16,
        -0.9238795177387994,
        0.0,
        -0.3535534113847044,
        0.923879520655066,
        0.1464466340084447,
        0.0,
        30.313173294067383,
        48.47813415527344,
        -9.010174751281738,
        1.0
      ],
      "name": "antena_middel_low003"
    },
    {
      "children": [
        67
      ],
      "matrix": [
        0.9238794942932461,
        -0.3826835246315887,
        0.0,
        0.0,
        0.3826835246315887,
        0.9238794942932461,
        0.0,
        0.0,
        -0.0,
        0.0,
        1.0,
        0.0,
        -3.2930755615234375,
        25.857364654541016,
        -13.827903747558594,
        1.0
      ],
      "name": "Object_66"
    },
    {
      "mesh": 23,
      "name": "antena_middel_low003_main_0"
    },
    {
      "children": [
        69
      ],
      "matrix": [
        1.0,
        0.0,
        0.0,
        0.0,
        0.0,
        2.220446049250313e-16,
        -1.0,
        0.0,
        0.0,
        1.0,
        2.220446049250313e-16,
        0.0,
        -3.6064014434814453,
        25.300472259521484,
        10.548177719116211,
        1.0
      ],
      "name": "screen_low001"
    },
    {
      "children": [
        70
      ],
      "matrix": [
        1.0,
        0.0,
        -0.0,
        0.0,
        0.0,
        1.0,
        0.0,
        0.0,
        0.0,
        0.0,
        1.0,
        0.0,
        0.08106803894042969,
        -1.9073486328125e-06,
        -1.9073486328125e-06,
        1.0
      ],
      "name": "Object_69"
    },
    {
      "mesh": 24,
      "name": "screen_low001_glass_0"
    }
  ],
  "samplers": [
    {
      "magFilter": 9729,
      "minFilter": 9987,
      "wrapS": 10497,
      "wrapT": 10497
    }
  ],
  "scene": 0,
  "scenes": [
    {
      "name": "Sketchfab_Scene",
      "nodes": [
        0
      ]
    }
  ],
  "textures": [
    {
      "sampler": 0,
      "source": 0
    },
    {
      "sampler": 0,
      "source": 1
    },
    {
      "sampler": 0,
      "source": 2
    },
    {
      "sampler": 0,
      "source": 3
    },
    {
      "sampler": 0,
      "source": 4
    }
  ]
}
